<svg id="Capa_1" data-name="Capa 1" xmlns="http://www.w3.org/2000/svg" viewBox="0 0 598.44 328.95"><defs><style>.cls-1{fill:#fff;}</style></defs><title>arrow-bottom</title><g id="cross"><path d="M305.66,341.46" transform="translate(-6.44 -6.19)"/><path class="cls-1" d="M305.66,270.56,46.26,10.59a15,15,0,0,0-21.21,0L10.81,24.88a15,15,0,0,0,0,21.16C57,92.27,241.19,276.75,295.07,330.75a15,15,0,0,0,21.19,0C372.54,274.42,554.66,92,600.51,46a15,15,0,0,0,0-21.15L586.26,10.59a15,15,0,0,0-21.21,0L306.56,269.66Z" transform="translate(-6.44 -6.19)"/></g></svg>