<svg id="Layer_1" data-name="Layer 1" xmlns="http://www.w3.org/2000/svg" viewBox="0 0 147.47 104.89">
<defs>

    <style>
    .cls-1{
        fill:#464647;
        }
    .cls-2{
        fill:#01adee;
    }
    .cls-3{
        fill:#e3170a;
    }
    </style>

</defs>

<title>get-response-task</title>
<g class="get-response">

    <g class="get">
        <path class="cls-1" d="M10.64,53.45a8.75,8.75,0,0,1,6.19,2.15l-1.77,2.25a7.26,7.26,0,0,0-4.35-1.5A5.49,5.49,0,0,0,5.27,62.1c0,3.7,2.53,6,5.57,6a6.14,6.14,0,0,0,4.3-1.77V65a.47.47,0,0,0-.53-.53h-1V61.86h2.75c1.15,0,1.63.48,1.63,1.6V70.7H15.28v-.81c0-.36,0-.72,0-.72h0a7.42,7.42,0,0,1-5,1.82C5.82,71,2,67.59,2,62.12A8.5,8.5,0,0,1,10.64,53.45Z" transform="translate(-2.02 -4.14)"/>

        <path class="cls-1" d="M26.18,58.23c3.49,0,5.4,2.56,5.4,5.78,0,.36-.07,1.12-.07,1.12H23.1a3.5,3.5,0,0,0,3.66,3.27A5.54,5.54,0,0,0,30.17,67l1.27,2.1A7.41,7.41,0,0,1,26.54,71,6.24,6.24,0,0,1,20,64.61,6,6,0,0,1,26.18,58.23ZM28.48,63a2.37,2.37,0,0,0-2.29-2.46,2.92,2.92,0,0,0-3,2.46Z" transform="translate(-2.02 -4.14)"/>

        <path class="cls-1" d="M34.58,60.93H33V58.51h1.65V55.19h3v3.32h2.77v2.41H37.61v4.92A2.16,2.16,0,0,0,40,68.14a2.8,2.8,0,0,0,.55,0v2.65a5.56,5.56,0,0,1-.93.07c-1.7,0-5.07-.5-5.07-4.59Z" transform="translate(-2.02 -4.14)"/>
    </g>

    <path class="cls-1" d="M43.75,53.74h6c3.11,0,5.28,1.91,5.28,5.11a4.4,4.4,0,0,1-2.82,4.47v0a2,2,0,0,1,.84.86l1.65,3.27c.26.5.67.55,1.2.55h.31V70.7H54.6c-1.27,0-1.82-.19-2.37-1.27l-2.17-4.28c-.36-.67-.72-.79-1.6-.79H46.88V70.7H43.76Zm5.62,8A2.37,2.37,0,0,0,51.88,59a2.33,2.33,0,0,0-2.46-2.63H46.88v5.3Z" transform="translate(-2.02 -4.14)"/>

    <path class="cls-1" d="M63.28,58.23c3.49,0,5.4,2.56,5.4,5.78,0,.36-.07,1.12-.07,1.12H60.2a3.5,3.5,0,0,0,3.66,3.27A5.54,5.54,0,0,0,67.27,67l1.27,2.1A7.41,7.41,0,0,1,63.64,71a6.24,6.24,0,0,1-6.55-6.38A6,6,0,0,1,63.28,58.23ZM65.58,63a2.37,2.37,0,0,0-2.29-2.46,2.92,2.92,0,0,0-3,2.46Z" transform="translate(-2.02 -4.14)"/>

    <path class="cls-1" d="M71.68,66.83a5.45,5.45,0,0,0,3.63,1.79c.93,0,1.65-.38,1.65-1.19,0-1.72-6.43-1.7-6.43-5.64,0-2.44,2.2-3.56,4.73-3.56,1.65,0,4.28.55,4.28,2.53V62H76.86v-.6c0-.57-.86-.86-1.53-.86-1.07,0-1.82.38-1.82,1.1,0,1.91,6.48,1.53,6.48,5.59C80,69.55,78,71,75.31,71a6.68,6.68,0,0,1-5.07-2.17Z" transform="translate(-2.02 -4.14)"/>

    <path class="cls-1" d="M82.82,61.62a.47.47,0,0,0-.53-.53h-1V58.51H84c1.12,0,1.53.5,1.53,1.17v.48h0a4.3,4.3,0,0,1,3.87-1.94c3.3,0,5.42,2.61,5.42,6.38S92.52,71,89.32,71a4.25,4.25,0,0,1-3.49-1.6h0a10.35,10.35,0,0,1,0,1.05v5h-3Zm5.95,6.81c1.67,0,3.08-1.36,3.08-3.78s-1.24-3.82-3-3.82c-1.58,0-3.06,1.15-3.06,3.85C85.76,66.57,86.76,68.43,88.77,68.43Z" transform="translate(-2.02 -4.14)"/>

    <path class="cls-1" d="M103.11,58.23a6.39,6.39,0,1,1-6.67,6.38A6.39,6.39,0,0,1,103.11,58.23Zm0,10.18a3.8,3.8,0,1,0-3.61-3.8A3.63,3.63,0,0,0,103.11,68.41Z" transform="translate(-2.02 -4.14)"/>

    <path class="cls-1" d="M112.56,61.62a.47.47,0,0,0-.53-.53h-1V58.51h2.8c1.07,0,1.6.5,1.6,1.36v.36a3.37,3.37,0,0,1,0,.53h0a4.69,4.69,0,0,1,4.3-2.53c2.7,0,4.25,1.41,4.25,4.64v4.75a.48.48,0,0,0,.53.53h1V70.7h-2.89c-1.15,0-1.63-.48-1.63-1.62V63.48c0-1.48-.38-2.48-1.91-2.48a3.34,3.34,0,0,0-3.27,2.48,5.14,5.14,0,0,0-.24,1.62V70.7h-3Z" transform="translate(-2.02 -4.14)"/>

    <path class="cls-1" d="M128,66.83a5.45,5.45,0,0,0,3.63,1.79c.93,0,1.65-.38,1.65-1.19,0-1.72-6.43-1.7-6.43-5.64,0-2.44,2.2-3.56,4.73-3.56,1.65,0,4.28.55,4.28,2.53V62h-2.68v-.6c0-.57-.86-.86-1.53-.86-1.08,0-1.82.38-1.82,1.1,0,1.91,6.47,1.53,6.47,5.59,0,2.29-2,3.73-4.68,3.73a6.68,6.68,0,0,1-5.07-2.17Z" transform="translate(-2.02 -4.14)"/>

    <path class="cls-1" d="M144.09,58.23c3.49,0,5.4,2.56,5.4,5.78,0,.36-.07,1.12-.07,1.12H141a3.5,3.5,0,0,0,3.66,3.27A5.54,5.54,0,0,0,148.08,67l1.27,2.1a7.41,7.41,0,0,1-4.9,1.84,6.24,6.24,0,0,1-6.55-6.38A6,6,0,0,1,144.09,58.23Zm2.29,4.8a2.37,2.37,0,0,0-2.29-2.46,2.92,2.92,0,0,0-3,2.46Z" transform="translate(-2.02 -4.14)"/>

    <path class="cls-2 logo" d="M43.15,4.14h65a3.94,3.94,0,0,1,2.26.71l.61.43a.11.11,0,0,1,0,.16c-1.71,2.31-3.26,4.55-5,6.67-5.14,6.35-11,11.9-18.51,15.39-8.62,4-17.12,3.7-25.23-1.33A23,23,0,0,1,52,11.81c-.25-1-.65-1.23-1.5-1.21A3.62,3.62,0,0,0,47.06,15a36.76,36.76,0,0,0,1.77,6.58A29.11,29.11,0,0,0,76,40c7.44,0,13.83-2.86,19.58-7.35,6.41-5,11.17-11.42,15.32-18.34.15-.26.35-.49.71-1,0,.81,0,1.26,0,1.72q0,15.35,0,30.7c0,1.85-.22,2.68-1.18,3.28a3.21,3.21,0,0,1-1.74.46l-65.6,0a3.05,3.05,0,0,1-2.13-.7A3.22,3.22,0,0,1,40,46.11q0-19,0-38.1c0-2.05.38-2.83,2-3.61A2.61,2.61,0,0,1,43.15,4.14Z" transform="translate(-2.02 -4.14)"/>
</g>
<g class="task">
    <path class="cls-3" d="M44.5,77.91l.45-.37.53.05a1.24,1.24,0,0,0,.76-.24,1.24,1.24,0,0,1,.51-.26,1,1,0,0,0,.47-.26,1.66,1.66,0,0,1,.8-.33,1.41,1.41,0,0,0,.76-.33,1.08,1.08,0,0,1,.54-.3,4.43,4.43,0,0,0,.7-.22l2.39-.74a1.19,1.19,0,0,1,.29.11h.11a1,1,0,0,0,.62-.25,1.1,1.1,0,0,1,.72-.25,3.49,3.49,0,0,0,1-.32l.16.16q.42-.47.71-.47h.16l.47.11a3.71,3.71,0,0,1,1.08-.21l.61-.05a.41.41,0,0,1,.16.05.92.92,0,0,1,.58-.29h.29l1.08-.26.32.11a1.5,1.5,0,0,1,1-.26H62l.26.05a3.41,3.41,0,0,0,.49-.16,8.29,8.29,0,0,1,2.12-.16l.68.11a6.48,6.48,0,0,1,.71-.26l.74.16.29-.11h.11a.94.94,0,0,1,.26.11h.05l1.9-.26.21.05a.61.61,0,0,1,.32-.18l.5.13a1.93,1.93,0,0,0,.74-.29l.16.16,1.79-.21.66.05.58-.11a1.71,1.71,0,0,1,1.3.46,1.37,1.37,0,0,1,.43.93l.11.82-.16.45-.05.53a.72.72,0,0,1-.39.42s-.08.07-.24.12a1.65,1.65,0,0,0-.47.22,4.09,4.09,0,0,1-1.55.16q-.66,0-.84-.41t-.39-.46l-1.13-.47a.55.55,0,0,0-.32-.05h-.21L69.58,75l-.29-.05-.37.16L67,75l-.79.05-.55-.11a1.53,1.53,0,0,0-.37.08,6.13,6.13,0,0,1-1.1.13q-.84.05-.84.53a1.18,1.18,0,0,0,.22.63,1.12,1.12,0,0,1,.22.55,1.94,1.94,0,0,0-.39.71,4.46,4.46,0,0,0-.37.34q-.26.26-1,.83a3.82,3.82,0,0,0-1,1,.75.75,0,0,1-.63.47,3.11,3.11,0,0,0-.66.82l-.21.21a.36.36,0,0,0-.05.24.45.45,0,0,1-.16.32l-.24.63A6.7,6.7,0,0,0,58,83.81l-.32.16-.32.37H57q-.24,0-.24.32l.11.76a2.39,2.39,0,0,0-.63.92l-.32.53a3.75,3.75,0,0,0-.55.61,5.89,5.89,0,0,1-.53,1.13l-.05.26q0,.45-1.84,2.58A3.83,3.83,0,0,0,52.67,93q-.79,1.55-1.08,1.5a4.74,4.74,0,0,1-.33,1.63q-.28.63-.71,1.86a5.38,5.38,0,0,1-.91,1.75l-.11.21a2.76,2.76,0,0,1-.26.42,12.72,12.72,0,0,1-.5,2.26l-.16,1.13-.53,1.47a.7.7,0,0,0-.08.32,1.11,1.11,0,0,0,.17.41,1.18,1.18,0,0,1,0,1.16,1.16,1.16,0,0,0-.13.59,1.06,1.06,0,0,1-.87,1.08H47l-.55.05a2.6,2.6,0,0,1-2-1.05,4.33,4.33,0,0,1-.89-2.9,7.1,7.1,0,0,1,.16-.8q.16-.7.18-.91a1.44,1.44,0,0,1,.13-.43,1.56,1.56,0,0,0,.11-.64,3.88,3.88,0,0,1,.64-2.24,14,14,0,0,0,.86-1.37.33.33,0,0,1,.18-.24,1.51,1.51,0,0,1-.08-.53,1.46,1.46,0,0,1,.66-1.24,2.65,2.65,0,0,1,.18-.49q.13-.28.55-1.34a1.84,1.84,0,0,1,1.11-1.25s.09-.18.32-.42L48.46,92q0-.21.47-.71l.45-.74a1.4,1.4,0,0,1,.68-.82.64.64,0,0,1,.34-.32q0-.1.22-.66a5.4,5.4,0,0,1,.84-1.38q.64-.83,1.24-1.72t1.08-.92a.53.53,0,0,0,.54-.55l.16-1a5.28,5.28,0,0,0,.92-.92l.37-.42a.87.87,0,0,1,.28-.49,2.11,2.11,0,0,0,.43-.49,2.93,2.93,0,0,1,.66-.66,3.55,3.55,0,0,1,1.55-1.87l.42-.45a4.21,4.21,0,0,1,.74-.86,1.36,1.36,0,0,0,.43-.59,1,1,0,0,1,.57-.55q.42-.18.42-.42c0-.07-.07-.11-.21-.11a2.77,2.77,0,0,0-.71.16h-.21l-.47.11h-.16l-.45-.11a2.53,2.53,0,0,1-.74.16A2.85,2.85,0,0,1,58,76h-.58l-.32.32-.24.05-.68-.11a1.42,1.42,0,0,0-.76.32,2.83,2.83,0,0,1-.86.18,6,6,0,0,0-1.62.49,3.8,3.8,0,0,1-.92.36l-.47-.11h-.05a.83.83,0,0,0-.63.34,1.3,1.3,0,0,1-.84.42H49.7a2.72,2.72,0,0,0-1.07.32,6,6,0,0,1-.72.32l-.47-.05a2.57,2.57,0,0,1-.54.29,1.47,1.47,0,0,0-.43.25,1.51,1.51,0,0,1-.42.25,2,2,0,0,0-.49.29.83.83,0,0,1-.43.21H45l-.32-.05q-.19,0-.47.33a1.3,1.3,0,0,1-.54.41,1.55,1.55,0,0,0-.47.25.92.92,0,0,1-.46.2,2.76,2.76,0,0,0-.37.58,2.75,2.75,0,0,1-.61.78,3,3,0,0,0-.49.51c-.08.12-.15.18-.22.18q-1.29,0-1.29-1.61l.53-1.13A2.51,2.51,0,0,1,42,78.94a5.54,5.54,0,0,0,1.5-.58Z" transform="translate(-2.02 -4.14)"/>


    <path class="cls-3" d="M111.37,98.73q-.47,0-1.19.76l-.16.1a2.57,2.57,0,0,0-.71.57,3,3,0,0,1-1,.67q-.05.53-.42.53h-.32c-.19,0-.41.15-.64.46a3.29,3.29,0,0,1-1,.82,2.06,2.06,0,0,0-.75.62.65.65,0,0,1-.51.32l-.37.11a1.89,1.89,0,0,1-.66.38,1.58,1.58,0,0,0-.47.22,5.13,5.13,0,0,0-.66-.16,1.53,1.53,0,0,1-.75-.5,3,3,0,0,1-.59-.79,5.15,5.15,0,0,0-.51-.83,1.92,1.92,0,0,1-.36-.59q0-.32,1-.8a8,8,0,0,0,1.29-.72,1.61,1.61,0,0,1,.57-.32,1.82,1.82,0,0,0,.54-.26l1.53-1.4.16-.53c.28-.26.42-.45.42-.55l-.05-.47a3,3,0,0,0,.32-.82q0-1.61-.7-2a5.11,5.11,0,0,1-.91-.62l-1.5-.34a6.08,6.08,0,0,0-1.26.47,2.44,2.44,0,0,0-1.4,1.26l-.32-.11a.94.94,0,0,0-.54.29l-.54.47-.42.32-.82.82-.4.32.08.47-.18.11-.37-.05a.15.15,0,0,0-.05.11,8.87,8.87,0,0,1-1.08,1.13l-.76.66-.53.71a1.73,1.73,0,0,0-.42.79l-.18.1a7.23,7.23,0,0,0-.95.55q-.13.37-.24.37l-.05-.05v-.53a1.52,1.52,0,0,1,.16-.45l.34-.05L93,99.71a3.38,3.38,0,0,0,.26-.61q.1-.71.11-.84t.61-.45l.11-.26a4.8,4.8,0,0,0,.51-1.33,4.86,4.86,0,0,1,.72-1.59L96.49,93q.32-.5.53-.92a1.75,1.75,0,0,0,.89-.86,3,3,0,0,1,.7-1,1.44,1.44,0,0,0,.46-1.09q.21,0,.5-.42l.16-.21a3.82,3.82,0,0,0,1-1.4l.39-.76q.42-.79.55-.82l1.08-2.9a.9.9,0,0,1,.29-.55.85.85,0,0,1-.05-.21l.16-2.26V79a1.25,1.25,0,0,0-.17-.62,2.37,2.37,0,0,1-.25-.78q-.08-.47-.71-.47a2.16,2.16,0,0,0-1.43.71,5.51,5.51,0,0,0-1.22,1.76l-.05.16a1.09,1.09,0,0,0-.21.42l-.11.11a1.13,1.13,0,0,0-.42.61l.13.24a.47.47,0,0,1,.08.24,2.11,2.11,0,0,1-.66.29q-.47,1.16-.71,1.69l-.58,1.16a2.44,2.44,0,0,1-.38,1,5.74,5.74,0,0,0-.62,1q-.42.78-.45.86l-.26.42a21.8,21.8,0,0,1-1.21,2.92,1.34,1.34,0,0,0-.32.32,8.63,8.63,0,0,1-1.39,2.58q-.21.21-.66.76l-2.68,3.4a1.48,1.48,0,0,0-.62.54.91.91,0,0,1-.33.38.59.59,0,0,0-.26.3l-.22.12a1,1,0,0,0-.43.36q-.18.25-.45.57l-.5.26a2.74,2.74,0,0,1-.83.68,1.15,1.15,0,0,0-.51.41,4.48,4.48,0,0,1-1.5.86.56.56,0,0,1-.11-.32,2.1,2.1,0,0,1,.32-.66v-.63l.32-.87-.05-1.08a3,3,0,0,1,.21-.5,5.29,5.29,0,0,0-.24-.75,2.38,2.38,0,0,1-.18-.8,10.49,10.49,0,0,0-.62-2.71,4.34,4.34,0,0,0-1.26-2.3,2.24,2.24,0,0,0-1-.38,1.33,1.33,0,0,0-1,.4A3.74,3.74,0,0,0,78.84,93a3.41,3.41,0,0,1-.54,1.29,3.19,3.19,0,0,0-.41.49l-.37.66a7.59,7.59,0,0,1-1.11,1.24,15.58,15.58,0,0,1-1.29,1.16L74,98.63l-.1.17-.09-.12q-.21-.26-.37-.26-.45,0-.87.64a2.18,2.18,0,0,1-.91.86.86.86,0,0,0-.56.57.43.43,0,0,1-.47.36l-.42.37a2.56,2.56,0,0,0-.55.66l-.26.11a1.79,1.79,0,0,0-.54.54,2.15,2.15,0,0,1-1.22.7.87.87,0,0,1-.18-.66l.11-.74-.05-.66a.82.82,0,0,1,.22-.49.81.81,0,0,0,.22-.43v-.05l.37-1.08a1.86,1.86,0,0,1,.16-.47A4.55,4.55,0,0,0,70,95.39q0-1.45-1.13-1.45a2.09,2.09,0,0,0-2.07,1q-.49,1-.75,1t-.26-.47q-.16-2.26-1.79-2.26a.59.59,0,0,0-.26.05l-.42.21h-.05a1.64,1.64,0,0,0-.5-.21h-.16a10.69,10.69,0,0,1-1.4.66H61a2.08,2.08,0,0,0-.94.34,7.51,7.51,0,0,1-1.21.57,3.07,3.07,0,0,0-1.11.7,2.67,2.67,0,0,1-.65.53,8,8,0,0,0-2,1.47l-.79.79a3.21,3.21,0,0,0-.9.82,3.64,3.64,0,0,1-.63.72.86.86,0,0,0-.37.67l-.26.34a3.79,3.79,0,0,0-.62.83,3.71,3.71,0,0,0-.46.83l.05.71q-.5,0-.5.32l.05.87v.16a1.1,1.1,0,0,0-.05.42,1.89,1.89,0,0,0,.24,1l.26,1.08q.08.55,1,.95a4.41,4.41,0,0,0,1.66.39,6.92,6.92,0,0,0,3-1.4l.16-.16a10.34,10.34,0,0,0,.92-.53l2-1.63a2.11,2.11,0,0,0,.61-.67,3.83,3.83,0,0,1,.29-.46l.5.05.26-.26A.94.94,0,0,1,62,103q.34-.12.39-.3l.11-.16a2.3,2.3,0,0,0,.53-.47,1.2,1.2,0,0,1,.34-.66.9.9,0,0,0,.64-.26q.28-.26.38-.26c.07,0,.11.05.11.16l-.16,1.29a.86.86,0,0,0,.05.26.93.93,0,0,1,.05.29.21.21,0,0,1-.05.16.21.21,0,0,0-.05.16.46.46,0,0,0,.13.26.46.46,0,0,1,.13.26l-.11.5a1.31,1.31,0,0,0,.24.83,1.17,1.17,0,0,1,.26.49.6.6,0,0,0,.18.34,2.81,2.81,0,0,1,.87.25,2.15,2.15,0,0,0,.92.2,1.06,1.06,0,0,0,.38-.14,4.6,4.6,0,0,1,.84-.3,1.88,1.88,0,0,0,.83-.42l.05-.26a3.66,3.66,0,0,0,.63-.24,1.42,1.42,0,0,1,.78-.53.74.74,0,0,0,.55-.47,1.2,1.2,0,0,1,.78-.61l.26-.37a1.89,1.89,0,0,0,.62-.58,1.15,1.15,0,0,1,.51-.45l.18-.34v-.07l1-.77,1.77-1.42a.69.69,0,0,0,.45-.39,1.64,1.64,0,0,1,.7-.62,1.46,1.46,0,0,0,.67-.62,5.24,5.24,0,0,1,1-1.16q.84-.82,1-.82t.22.47q.15.47.15.5l-.11.66a3.08,3.08,0,0,0,.11.42l-.11.21.05.55-.26.53a.89.89,0,0,0,.21.45l.05.21q0,.26-.32.33c-.21,0-.32.14-.32.3v.39a2.23,2.23,0,0,0-.16.47v.26l-.92,1.18-.45.92q-.18.45-.26.45h-.21l-.1.05a2.09,2.09,0,0,1-1.34.63.93.93,0,0,1-.39-.21l-.42.05c-.07,0-.11,0-.11-.05q-.39-.47-.66-.47a1.33,1.33,0,0,0-.54.16,1.82,1.82,0,0,1-.38.16q-1.18.16-1.47.72a2.17,2.17,0,0,1-.54.75.5.5,0,0,0-.25.37,1,1,0,0,0,.3.55,7.84,7.84,0,0,1,.67.91,3.32,3.32,0,0,0,.93.95,4,4,0,0,0,2.09.38,2.49,2.49,0,0,0,1.26-.54,2.52,2.52,0,0,1,1.16-.54h.37a2.63,2.63,0,0,1,1-.58l.45-.34a2.4,2.4,0,0,1,1-.53q.64-.21.64-.34l.21-.32.6-.16a2.73,2.73,0,0,0,1.18-.58l.11-.08a1,1,0,0,0,.26-.11q.08-.37.71-.53a1.86,1.86,0,0,0,.26-.61l.55-.11a6.94,6.94,0,0,1,1-1q.47-.1.57-.37c.06-.17.1-.26.12-.26q.66-.1.71-.21l.26-.34.53-.32q.82-1.05.87-1.08a3.63,3.63,0,0,0,.42-.13.63.63,0,0,1,0,.18,2,2,0,0,1-.43.89,6.85,6.85,0,0,0-.75,1.47l-.71,1.84a6.2,6.2,0,0,0-.26,2.16q0,.21.49.62a1.4,1.4,0,0,0,.75.41.36.36,0,0,0,.26-.1,3.79,3.79,0,0,1,.45-.34l.42-.26a7.57,7.57,0,0,1,.61-.53,1.77,1.77,0,0,0,.53-.61,2.66,2.66,0,0,1,.37-.58,2.88,2.88,0,0,1,.42-.43,2.16,2.16,0,0,0,.45-.75h.21q.34,0,.45-.49c.07-.32.21-.49.42-.49a1.75,1.75,0,0,1,.61-.87.35.35,0,0,0,.32-.16,3.7,3.7,0,0,1,.32-.4l.16-.1a2.71,2.71,0,0,1,1-.79l.21-.61q.37,0,1-.66l.11-.42.34-.16h.21q.26,0,.42-.43t.32-.43l.5.05q.24,0,.53-.49a1,1,0,0,1,.82-.54,2.6,2.6,0,0,1,1.13-.68q.26.05.26.21,0,1.69-.93,2a3.8,3.8,0,0,0-1.16.53,2.88,2.88,0,0,1-.58.41,3.36,3.36,0,0,0-.72.57h-.1a.51.51,0,0,0-.47.33.62.62,0,0,1-.38.38.62.62,0,0,0-.38.37l-.26.16a3,3,0,0,0-.32.76q0,.63.84.82l.24.32a8.52,8.52,0,0,0,1.45,2.69l.37.32q.39.87.66,1a1.26,1.26,0,0,1,.47.34,7,7,0,0,0,1.4.26,1.89,1.89,0,0,0,.64-.18,1.94,1.94,0,0,1,.72-.18q.26,0,.58-.45c0-.11,0-.16.11-.16l.26.05h.08a1.16,1.16,0,0,0,.32-.16l.71-.5a8.12,8.12,0,0,1,.78-.45,1,1,0,0,0,.45-.46,1.09,1.09,0,0,1,.49-.49,1.57,1.57,0,0,0,.51-.39,1.5,1.5,0,0,1,.33-.32,1,1,0,0,0,.24-.2,1.41,1.41,0,0,1,.21-.2,2.5,2.5,0,0,0,.33-.34,1.47,1.47,0,0,1,.59-.41,1.09,1.09,0,0,0,.54-.41.73.73,0,0,1,.33-.32.74.74,0,0,0,.32-.24.44.44,0,0,1,.32-.18h.05l.29.11a5,5,0,0,0,.33-.71,3.2,3.2,0,0,0,.3-.95,6.1,6.1,0,0,1,.21-1.21A.37.37,0,0,0,111.37,98.73Zm-47.15-.34a13.76,13.76,0,0,1-1.43,1.32,1.29,1.29,0,0,1-.64.62,1.23,1.23,0,0,0-.65.88,1.36,1.36,0,0,0-.53.37,2,2,0,0,1-.71.45l-.55.42-1.45.82a1.29,1.29,0,0,1-.53.46,1.68,1.68,0,0,0-.47.32.5.5,0,0,1-.26.17.46.46,0,0,0-.24.13l-.5.26a1.15,1.15,0,0,0-.42.21,3.5,3.5,0,0,1-.78.38,3.13,3.13,0,0,1-.88.28q-.5,0-.5-1.29a1,1,0,0,1,.3-.57,1.47,1.47,0,0,0,.36-.79.61.61,0,0,1,.37-.55,1.7,1.7,0,0,0,.53-.3l.18-.45q0-.08.68-.63a1.22,1.22,0,0,1,.82-.92,4,4,0,0,0,1.24-1.13,2.1,2.1,0,0,0,1-.51,4.22,4.22,0,0,1,1.54-.72,5.26,5.26,0,0,0,1.16-.38,1.44,1.44,0,0,1,.72-.17l.53.11.34-.05.37.18.5-.05.47.05.21-.13h.05c.07,0,.11,0,.11.08S64.85,97.76,64.22,98.39Z" transform="translate(-2.02 -4.14)"/>
</g>


</svg>