<?xml version="1.0" encoding="utf-8"?>
<!-- Generator: Adobe Illustrator 21.0.0, SVG Export Plug-In . SVG Version: 6.00 Build 0)  -->
<svg version="1.1" id="Layer_1" xmlns="http://www.w3.org/2000/svg" xmlns:xlink="http://www.w3.org/1999/xlink" x="0px" y="0px"
	 viewBox="0 0 150 105" style="enable-background:new 0 0 150 105;" xml:space="preserve">
	<defs>
		<linearGradient id="lightGradient">
			
			<stop offset="0%" stop-color="#01ADEE">
				<animate attributeName="stop-color" values="#01ADEE; #fff" dur=".5s" fill="freeze" begin="4.7s"/> 
			</stop>
			<stop offset="100%" stop-color="#01ADEE">
				<animate attributeName="stop-color" values="#01ADEE; #fff" dur=".5s" fill="freeze" begin="4.5s"/> 
			</stop>
		</linearGradient>
	</defs>

	<style type="text/css">
		
		#Layer_1{
			position: relative;
		}
		.st0{
			fill:#464647;
		}
		.st1{
			fill:none;
		}
		.st2{
			fill:#E3170A;
		}
		.st3{
			fill:#01ADEE;
		}
		.smile{
			stroke: 0;
		}

		.st2{
			animation: fill 3.6s forwards;
		}

		@keyframes fill{
			0%{transform: scale(0);}
			99%{transform: scale(0);}
			100%{transform: scale(1);}
		}

		.task{
			animation: scale 0.8s ease-in-out forwards;
			animation-delay: 3.5s;
		}

		@keyframes scale{
			0%{ transform: scale(5) translate(-50%, -100%);}
			70%{ transform: scale(1);}
			86%{ transform: scale(1.05) translate(-1%, -5%);}
			100%{ transform: scale(1);}
		}

		.response{
			animation: moveToLeft 2.5s ease forwards;
		}


		@keyframes moveToLeft{
			0%{transform: translate(200%, 0%) skewX(-60deg);}
			90%{transform: translate(0%, 0%) skewX(0.5deg);}
			100%{transform: translate(0%, 0%) skewX(0deg);}

		}
		
		.letter{
			stroke-miterlimit:10;
			stroke-dasharray: 190;
			animation: draw 8s ease forwards;
		}

		@keyframes draw{
			0%{
				stroke:#464647;
				stroke-width:1;
				stroke-dashoffset: 190;
				fill: #fff;
			}
			100%
			{
				stroke-dashoffset: 0;
				fill:#464647;
				stroke: #464647;                
			}			
		}

		

	</style>

	


<title>get-response-task</title>

<g>
	<g>
		<path class="st3 logo-background" d="M43.1,0.7c2.3,0,62.7,0,64.5,0c0.4,0,0.8,0.1,1.1,0.3l1.2,0.8c-1.7,2.3-3.3,4.6-5,6.7
			C99.8,14.9,94,20.4,86.6,23.8c-8.5,4-16.9,3.7-25-1.3c-5.3-3.3-8.7-8.1-10.2-14.2c-0.3-1.1-0.7-1.3-1.8-1.2
			c-2.1,0.2-3.5,2.1-3.1,4.2c0.4,2.3,0.9,4.6,1.8,6.7c4.4,11,15,18.2,26.9,18.2c7.4,0,13.7-2.8,19.4-7.3c6.3-5,11.1-11.3,15.2-18.1
			c0.2-0.3,0.3-0.5,0.7-1c0,0.8,0,21.9,0,32.1c0,2.4-0.4,3-2.2,3.7c-0.3,0-60.5,0-66,0c-0.3,0-0.6-0.1-0.8-0.2
			c-1.3-0.6-1.8-1.5-1.8-3.2c0-12.6,0-25.1,0-37.7c0-1.7,0.3-2.5,1.3-3.2C41.5,1,42.3,0.7,43.1,0.7z"/>
		<g>
			<path class="st4 smile" fill="url(#lightGradient)" d="M109.9,1.9c-1.7,2.3-3.3,4.6-5,6.7c-5.1,6.3-10.9,11.8-18.3,15.2c-8.5,4-16.9,3.7-25-1.3
				c-5.3-3.3-8.7-8.1-10.2-14.2c-0.3-1.1-0.7-1.3-1.8-1.2c-2.1,0.2-3.5,2.1-3.1,4.2c0.4,2.3,0.9,4.6,1.8,6.7
				c4.4,11,15,18.2,26.9,18.2c7.4,0,13.7-2.8,19.4-7.3c6.3-5,11.1-11.3,15.2-18.1c0.1-0.2,0.3-0.5,0.7-1c0-2.3,0-4.6,0-7
				C110.4,2.4,110.2,2.1,109.9,1.9L109.9,1.9z"/>
		</g>
	</g>
</g>


<g>
	<g class="get">
		<path class="st0 letter" d="M9.9,48.7c2.3-0.1,4.5,0.7,6.2,2.2l-1.8,2.3c-1.2-1-2.8-1.5-4.4-1.5c-3,0-5.5,2.5-5.4,5.5c0,0.1,0,0.1,0,0.2
			c0,3.7,2.5,6,5.6,6c1.6,0,3.2-0.6,4.3-1.8v-1.3c0-0.3-0.1-0.5-0.4-0.5c0,0-0.1,0-0.1,0h-1v-2.6h2.8c1.1,0,1.6,0.5,1.6,1.6v7.2
			h-2.7v-0.8c0-0.4,0-0.7,0-0.7l0,0c-1.4,1.2-3.2,1.9-5,1.8c-4.5,0-8.3-3.4-8.3-8.9c-0.1-4.7,3.6-8.6,8.3-8.7
			C9.7,48.7,9.8,48.7,9.9,48.7z"/>
		<path class="st0 letter" d="M25.4,53.5c3.5,0,5.4,2.6,5.4,5.8c0,0.4-0.1,1.1-0.1,1.1h-8.4c0.1,1.9,1.8,3.4,3.7,3.3
			c1.3-0.1,2.5-0.6,3.4-1.4l1.3,2.1c-1.3,1.2-3.1,1.9-4.9,1.9c-3.4,0.2-6.4-2.5-6.5-5.9c0-0.2,0-0.3,0-0.5c-0.2-3.3,2.3-6.2,5.6-6.4
			C25.1,53.5,25.2,53.5,25.4,53.5z M27.7,58.2c0.1-1.3-1-2.4-2.3-2.5c0,0,0,0,0,0c-1.5-0.1-2.8,1-3,2.5H27.7z"/>
		<path class="st0 letter" d="M33.8,56.2h-1.6v-2.4h1.7v-3.3h3v3.3h2.8v2.4h-2.8v4.9c-0.1,1.2,0.8,2.2,2,2.3c0.1,0,0.3,0,0.4,0
			c0.2,0,0.4,0,0.5,0V66c-0.3,0-0.6,0.1-0.9,0.1c-1.7,0-5.1-0.5-5.1-4.6L33.8,56.2z"/>
	</g>
	<g class="response">
		<path class="st0" d="M43,49h6c3.1,0,5.3,1.9,5.3,5.1c0.2,2-1,3.8-2.8,4.5l0,0c0.4,0.2,0.7,0.5,0.8,0.9l1.7,3.3
			c0.3,0.5,0.7,0.6,1.2,0.6h0.3v2.7h-1.6c-1.3,0-1.8-0.2-2.4-1.3l-2.2-4.3c-0.4-0.7-0.7-0.8-1.6-0.8h-1.6v6.3H43L43,49z M48.6,57
			c1.3,0.1,2.4-0.9,2.5-2.2c0-0.2,0-0.4,0-0.5c0.2-1.3-0.7-2.4-2-2.6c-0.2,0-0.3,0-0.5,0h-2.5v5.3L48.6,57z"/>
		<path class="st0" d="M62.5,53.5c3.5,0,5.4,2.6,5.4,5.8c0,0.4-0.1,1.1-0.1,1.1h-8.4c0.1,1.9,1.8,3.4,3.7,3.3
			c1.3-0.1,2.5-0.6,3.4-1.4l1.3,2.1c-1.3,1.2-3.1,1.9-4.9,1.9c-3.4,0.2-6.4-2.5-6.5-5.9c0-0.2,0-0.3,0-0.5c-0.2-3.3,2.3-6.2,5.6-6.4
			C62.1,53.5,62.3,53.5,62.5,53.5z M64.8,58.2c0.1-1.3-1-2.4-2.3-2.5c0,0,0,0,0,0c-1.5-0.1-2.8,1-3,2.5H64.8z"/>
		<path class="st0" d="M70.9,62.1c0.9,1,2.2,1.7,3.6,1.8c0.9,0,1.7-0.4,1.7-1.2c0-1.7-6.4-1.7-6.4-5.6c0-2.4,2.2-3.6,4.7-3.6
			c1.7,0,4.3,0.5,4.3,2.5v1.2h-2.7v-0.6c0-0.6-0.9-0.9-1.5-0.9c-1.1,0-1.8,0.4-1.8,1.1c0,1.9,6.5,1.5,6.5,5.6c0,2.3-2,3.8-4.7,3.8
			c-1.9,0-3.8-0.8-5.1-2.2L70.9,62.1z"/>
		<g>
			<path class="st1" d="M88.1,56.1c-1.6,0-3.1,1.1-3.1,3.8c0,1.9,1,3.8,3,3.8c1.7,0,3.1-1.4,3.1-3.8C91.1,57.5,89.9,56.1,88.1,56.1z"
				/>
			<path class="st0" d="M88.7,53.4c-1.5-0.1-3,0.6-3.9,1.9v-0.5c0-0.7-0.4-1.2-1.5-1.2h-2.7v2.6h1c0,0,0.1,0,0.1,0
				c0.3,0,0.4,0.3,0.4,0.5l0,13.8h3v-5c0-0.3,0-0.7,0-1.1c0.8,1.1,2.1,1.7,3.5,1.6c3.2,0,5.5-2.6,5.5-6.4
				C94.1,56.1,92,53.4,88.7,53.4z M88,63.7c-2,0-3-1.9-3-3.8c0-2.7,1.5-3.8,3.1-3.8c1.8,0,3,1.4,3,3.8C91.1,62.3,89.7,63.7,88,63.7z"
				/>
		</g>
		<g>
			<path class="st1" d="M102.5,56.5c-2.1-0.1-3.9,1.5-4,3.6c0,0.1,0,0.1,0,0.2c-0.1,2,1.5,3.7,3.5,3.8c0.1,0,0.1,0,0.2,0
				c2.1,0.1,3.9-1.5,4-3.6C106.3,58.4,104.6,56.7,102.5,56.5z"/>
			<path class="st0" d="M102.2,53.5c-0.1,0-0.2,0-0.3,0c-3.5,0-6.4,2.9-6.4,6.4c0,3.4,2.7,6.2,6.1,6.4c3.5,0.2,6.5-2.6,6.7-6.1
				C108.5,56.7,105.7,53.7,102.2,53.5z M101.8,63.8c-0.1,0-0.1,0-0.2,0c-2-0.1-3.5-1.8-3.5-3.8c0-0.1,0-0.1,0-0.2
				c0.1-2.1,1.9-3.7,4-3.6c2.1,0.1,3.7,1.9,3.6,4C105.7,62.3,103.9,63.9,101.8,63.8z"/>
		</g>
		<path class="st0" d="M111.8,56.8c0-0.3-0.1-0.5-0.4-0.5c0,0-0.1,0-0.1,0h-1v-2.6h2.8c1.1,0,1.6,0.5,1.6,1.4v0.4c0,0.2,0,0.4,0,0.5
			l0,0c0.8-1.6,2.5-2.6,4.3-2.5c2.7,0,4.3,1.4,4.3,4.6v4.7c0,0.3,0.2,0.5,0.4,0.5c0,0,0.1,0,0.1,0h1v2.6h-2.9c-1.2,0-1.6-0.5-1.6-1.6
			v-5.6c0-1.5-0.4-2.5-1.9-2.5c-1.5,0-2.9,1-3.3,2.5c-0.2,0.5-0.2,1.1-0.2,1.6v5.6h-3L111.8,56.8z"/>
		<path class="st0" d="M127.3,62.1c0.9,1,2.2,1.7,3.6,1.8c0.9,0,1.6-0.4,1.6-1.2c0-1.7-6.4-1.7-6.4-5.6c0-2.4,2.2-3.6,4.7-3.6
			c1.6,0,4.3,0.5,4.3,2.5v1.2h-2.7v-0.6c0-0.6-0.9-0.9-1.5-0.9c-1.1,0-1.8,0.4-1.8,1.1c0,1.9,6.5,1.5,6.5,5.6c0,2.3-2,3.7-4.7,3.7
			c-1.9,0-3.8-0.8-5.1-2.2L127.3,62.1z"/>
		<path class="st0" d="M143.3,53.5c3.5,0,5.4,2.6,5.4,5.8c0,0.4-0.1,1.1-0.1,1.1h-8.4c0.1,1.9,1.8,3.4,3.7,3.3
			c1.3-0.1,2.5-0.6,3.4-1.4l1.3,2.1c-1.4,1.2-3.1,1.8-4.9,1.8c-3.4,0.2-6.4-2.5-6.5-5.9c0-0.2,0-0.3,0-0.5c-0.2-3.3,2.3-6.1,5.7-6.3
			C143,53.5,143.2,53.5,143.3,53.5z M145.6,58.3c0.1-1.3-1-2.4-2.3-2.5c0,0,0,0,0,0c-1.5-0.1-2.8,1-3,2.5H145.6z"/>
	</g>
</g>

<g class="task">
	<path class="st2" d="M43.8,73.1l0.5-0.4l0.5,0.1c0.3,0,0.5-0.1,0.8-0.2c0.1-0.1,0.3-0.2,0.5-0.3c0.2,0,0.3-0.1,0.5-0.3
		c0.2-0.2,0.5-0.3,0.8-0.3c0.3,0,0.5-0.1,0.8-0.3c0.1-0.2,0.3-0.3,0.5-0.3c0.2-0.1,0.5-0.1,0.7-0.2l2.4-0.7c0.1,0,0.2,0.1,0.3,0.1
		h0.1c0.2,0,0.4-0.1,0.6-0.3c0.2-0.2,0.5-0.3,0.7-0.3c0.3-0.1,0.7-0.2,1-0.3l0.2,0.2c0.3-0.3,0.5-0.5,0.7-0.5h0.2l0.5,0.1
		c0.3-0.1,0.7-0.2,1.1-0.2l0.6-0.1c0.1,0,0.1,0,0.2,0.1c0.2-0.2,0.4-0.3,0.6-0.3h0.3l1.1-0.3l0.3,0.1c0.3-0.2,0.6-0.3,1-0.3h0.2
		l0.3,0.1c0.2,0,0.3-0.1,0.5-0.2c0.7-0.1,1.4-0.2,2.1-0.2l0.7,0.1c0.2-0.1,0.5-0.2,0.7-0.3l0.7,0.2l0.3-0.1h0.1
		c0.1,0,0.2,0.1,0.3,0.1H67l1.9-0.3l0.2,0.1c0.1-0.1,0.2-0.2,0.3-0.2l0.5,0.1c0.3,0,0.5-0.1,0.7-0.3l0.2,0.2l1.8-0.2l0.7,0.1
		l0.6-0.1c0.5,0,1,0.1,1.3,0.5c0.3,0.2,0.4,0.6,0.4,0.9l0.1,0.8l-0.2,0.4l-0.1,0.5c-0.1,0.2-0.2,0.3-0.4,0.4c0,0-0.1,0.1-0.2,0.1
		c-0.2,0-0.3,0.1-0.5,0.2c-0.5,0.2-1,0.2-1.6,0.2c-0.4,0-0.7-0.1-0.8-0.4s-0.2-0.4-0.4-0.5l-1.1-0.5c-0.1,0-0.2-0.1-0.3-0.1h-0.2
		l-1.1,0.1l-0.3-0.1l-0.4,0.2l-1.9-0.1l-0.8,0.1l-0.6-0.1c-0.1,0-0.3,0-0.4,0.1c-0.4,0.1-0.7,0.1-1.1,0.1c-0.6,0-0.8,0.2-0.8,0.5
		c0,0.2,0.1,0.4,0.2,0.6c0.1,0.2,0.2,0.4,0.2,0.6c-0.2,0.2-0.3,0.4-0.4,0.7c-0.1,0.1-0.3,0.2-0.4,0.3c-0.2,0.2-0.5,0.4-1,0.8
		c-0.4,0.3-0.7,0.6-1,1c-0.1,0.3-0.3,0.4-0.6,0.5c-0.3,0.2-0.5,0.5-0.7,0.8l-0.2,0.2c0,0.1-0.1,0.2,0,0.2c0,0.1-0.1,0.2-0.2,0.3
		l-0.2,0.6c-0.4,0.4-0.8,0.9-1.1,1.4l-0.3,0.2l-0.3,0.4h-0.4c-0.2,0-0.2,0.1-0.2,0.3l0.1,0.8c-0.3,0.3-0.5,0.6-0.6,0.9l-0.3,0.5
		c-0.2,0.2-0.4,0.4-0.5,0.6c-0.1,0.4-0.3,0.8-0.5,1.1l0,0.3c0,0.3-0.6,1.2-1.8,2.6c-0.2,0.5-0.3,1-0.3,1.5c-0.5,1-0.9,1.5-1.1,1.5
		c0,0.6-0.1,1.1-0.3,1.6c-0.2,0.4-0.4,1-0.7,1.9c-0.2,0.6-0.5,1.2-0.9,1.8l-0.1,0.2c-0.1,0.1-0.2,0.3-0.3,0.4
		c-0.1,0.8-0.3,1.5-0.5,2.3L47.9,99l-0.5,1.5c-0.1,0.1-0.1,0.2-0.1,0.3c0,0.1,0.1,0.3,0.2,0.4c0.2,0.4,0.2,0.8,0,1.2
		c-0.1,0.2-0.1,0.4-0.1,0.6c0,0.5-0.4,1-0.9,1.1h-0.2l-0.5,0.1c-0.8,0-1.5-0.4-2-1.1c-0.6-0.8-1-1.9-0.9-2.9c0-0.3,0.1-0.5,0.2-0.8
		c0.1-0.5,0.2-0.8,0.2-0.9c0-0.1,0.1-0.3,0.1-0.4c0.1-0.2,0.1-0.4,0.1-0.6c0-0.8,0.2-1.6,0.6-2.2c0.3-0.4,0.6-0.9,0.9-1.4
		c0-0.1,0.1-0.2,0.2-0.2C45,93.3,45,93.1,45,93c0-0.5,0.2-1,0.7-1.2c0-0.2,0.1-0.3,0.2-0.5c0.1-0.2,0.3-0.6,0.5-1.3
		c0.1-0.6,0.6-1,1.1-1.3c0,0,0.1-0.2,0.3-0.4l-0.1-1c0-0.1,0.2-0.4,0.5-0.7l0.5-0.7c0.1-0.4,0.4-0.6,0.7-0.8
		c0.1-0.1,0.2-0.3,0.3-0.3c0-0.1,0.1-0.3,0.2-0.7c0.2-0.5,0.5-1,0.8-1.4c0.4-0.6,0.8-1.1,1.2-1.7c0.4-0.6,0.8-0.9,1.1-0.9
		c0.3,0,0.5-0.2,0.5-0.5c0,0,0,0,0,0l0.2-1c0.3-0.3,0.7-0.6,0.9-0.9l0.4-0.4c0-0.2,0.1-0.4,0.3-0.5c0.2-0.1,0.3-0.3,0.4-0.5
		c0.2-0.3,0.4-0.5,0.7-0.7c0.3-0.8,0.8-1.4,1.5-1.9l0.4-0.4c0.2-0.3,0.5-0.6,0.7-0.9c0.2-0.2,0.3-0.4,0.4-0.6
		c0.1-0.3,0.3-0.5,0.6-0.6c0.3-0.1,0.4-0.3,0.4-0.4c0-0.1-0.1-0.1-0.2-0.1c-0.2,0-0.5,0.1-0.7,0.2h-0.2l-0.5,0.1h-0.2l-0.5-0.1
		c-0.2,0.1-0.5,0.1-0.7,0.2c-0.1,0.1-0.2,0.2-0.3,0.3h-0.6l-0.3,0.3l-0.2,0.1l-0.7-0.1c-0.3,0-0.5,0.1-0.8,0.3
		c-0.3,0.1-0.6,0.2-0.9,0.2c-0.6,0.1-1.1,0.3-1.6,0.5c-0.3,0.2-0.6,0.3-0.9,0.4l-0.5-0.1h0c-0.3,0-0.5,0.1-0.6,0.3
		c-0.2,0.2-0.5,0.4-0.8,0.4H49c-0.4,0-0.7,0.1-1.1,0.3c-0.2,0.1-0.5,0.2-0.7,0.3l-0.5-0.1c-0.2,0.1-0.3,0.2-0.5,0.3
		c-0.2,0.1-0.3,0.1-0.4,0.3c-0.1,0.1-0.3,0.2-0.4,0.3c-0.2,0.1-0.3,0.2-0.5,0.3c-0.1,0.1-0.3,0.2-0.4,0.2h-0.1l-0.3-0.1
		c-0.1,0-0.3,0.1-0.5,0.3c-0.1,0.2-0.3,0.3-0.5,0.4c-0.2,0.1-0.3,0.1-0.5,0.3c-0.1,0.1-0.3,0.2-0.5,0.2c-0.1,0.2-0.3,0.4-0.4,0.6
		c-0.2,0.3-0.4,0.6-0.6,0.8c-0.2,0.2-0.3,0.3-0.5,0.5c-0.1,0.1-0.2,0.2-0.2,0.2c-0.9,0-1.3-0.5-1.3-1.6l0.5-1.1
		c0.3-0.8,0.9-1.4,1.7-1.6c0.5-0.1,1-0.3,1.5-0.6L43.8,73.1z"/>
	<path class="st2" d="M110.6,94c-0.3,0-0.7,0.3-1.2,0.8l-0.2,0.1c-0.3,0.1-0.5,0.3-0.7,0.6c-0.3,0.3-0.6,0.5-1,0.7
		c0,0.4-0.2,0.5-0.4,0.5h-0.3c-0.2,0-0.4,0.2-0.6,0.5c-0.3,0.3-0.6,0.6-1,0.8c-0.3,0.1-0.6,0.4-0.8,0.6c-0.1,0.2-0.3,0.3-0.5,0.3
		l-0.4,0.1c-0.2,0.2-0.4,0.3-0.7,0.4c-0.2,0-0.3,0.1-0.5,0.2c-0.2-0.1-0.4-0.1-0.7-0.2c-0.3-0.1-0.6-0.3-0.8-0.5
		c-0.2-0.2-0.4-0.5-0.6-0.8c-0.1-0.3-0.3-0.6-0.5-0.8c-0.2-0.2-0.3-0.4-0.4-0.6c0-0.2,0.3-0.5,1-0.8c0.5-0.2,0.9-0.4,1.3-0.7
		c0.2-0.1,0.4-0.3,0.6-0.3c0.2-0.1,0.4-0.1,0.5-0.3l1.5-1.4l0.2-0.5c0.3-0.3,0.4-0.4,0.4-0.6l-0.1-0.5c0.1-0.3,0.3-0.5,0.3-0.8
		c0-1.1-0.2-1.7-0.7-2c-0.3-0.2-0.6-0.4-0.9-0.6l-1.5-0.3c-0.4,0.1-0.9,0.3-1.3,0.5c-0.6,0.2-1.1,0.7-1.4,1.3l-0.3-0.1
		c-0.2,0-0.4,0.1-0.5,0.3l-0.5,0.5l-0.4,0.3l-0.8,0.8l-0.4,0.3l0.1,0.5l-0.2,0.1l-0.4-0.1c0,0,0,0.1-0.1,0.1
		c-0.3,0.4-0.7,0.8-1.1,1.1l-0.8,0.7l-0.5,0.7c-0.2,0.2-0.4,0.5-0.4,0.8L93,95.7c-0.3,0.2-0.6,0.3-0.9,0.6c-0.1,0.2-0.2,0.4-0.2,0.4
		l-0.1-0.1V96c0-0.2,0.1-0.3,0.2-0.4l0.3-0.1l0-0.6c0.1-0.2,0.2-0.4,0.3-0.6c0.1-0.5,0.1-0.8,0.1-0.8c0-0.1,0.2-0.2,0.6-0.4l0.1-0.3
		c0.2-0.4,0.4-0.9,0.5-1.3c0.1-0.6,0.4-1.1,0.7-1.6l1.2-1.6c0.2-0.3,0.4-0.6,0.5-0.9c0.4-0.2,0.7-0.5,0.9-0.9c0.2-0.4,0.4-0.7,0.7-1
		c0.3-0.3,0.5-0.7,0.5-1.1c0.1,0,0.3-0.1,0.5-0.4l0.2-0.2c0.4-0.4,0.8-0.9,1-1.4l0.4-0.8c0.3-0.5,0.5-0.8,0.6-0.8l1.1-2.9
		c0-0.2,0.1-0.4,0.3-0.6c0-0.1,0-0.1-0.1-0.2l0.2-2.3v-0.6c0-0.2-0.1-0.4-0.2-0.6c-0.1-0.2-0.2-0.5-0.3-0.8
		c-0.1-0.3-0.3-0.5-0.7-0.5c-0.5,0-1.1,0.3-1.4,0.7c-0.5,0.5-0.9,1.1-1.2,1.8L98.6,75c-0.1,0.1-0.2,0.3-0.2,0.4l-0.1,0.1
		c-0.2,0.2-0.4,0.4-0.4,0.6l0.1,0.2c0,0.1,0.1,0.2,0.1,0.2c-0.2,0.1-0.4,0.2-0.7,0.3c-0.3,0.8-0.6,1.3-0.7,1.7l-0.6,1.2
		c-0.1,0.4-0.2,0.7-0.4,1c-0.2,0.3-0.4,0.6-0.6,1c-0.3,0.5-0.4,0.8-0.4,0.9L94.4,83c-0.3,1-0.7,2-1.2,2.9c-0.1,0.1-0.2,0.2-0.3,0.3
		c-0.3,0.9-0.8,1.8-1.4,2.6c-0.1,0.1-0.4,0.4-0.7,0.8L88.1,93c-0.3,0.1-0.5,0.3-0.6,0.5c-0.1,0.2-0.2,0.3-0.3,0.4
		c-0.1,0.1-0.2,0.2-0.3,0.3l-0.2,0.1c-0.2,0.1-0.3,0.2-0.4,0.4c-0.1,0.2-0.3,0.4-0.4,0.6l-0.5,0.3c-0.2,0.3-0.5,0.5-0.8,0.7
		c-0.2,0.1-0.4,0.2-0.5,0.4c-0.4,0.4-0.9,0.7-1.5,0.9c-0.1-0.1-0.1-0.2-0.1-0.3c0.1-0.2,0.2-0.5,0.3-0.7v-0.6L83,95L83,93.9
		c0.1-0.2,0.1-0.3,0.2-0.5c-0.1-0.3-0.1-0.5-0.2-0.8c-0.1-0.3-0.2-0.5-0.2-0.8c-0.1-0.9-0.3-1.8-0.6-2.7c-0.2-0.9-0.6-1.7-1.3-2.3
		c-0.3-0.2-0.6-0.3-1-0.4c-0.4,0-0.7,0.1-1,0.4c-0.3,0.4-0.6,0.8-0.8,1.3c-0.1,0.5-0.3,0.9-0.5,1.3c-0.2,0.1-0.3,0.3-0.4,0.5
		l-0.4,0.7c-0.3,0.5-0.7,0.9-1.1,1.2c-0.4,0.4-0.8,0.8-1.3,1.2l-1.1,0.8L73.2,94l-0.1-0.1c-0.1-0.2-0.3-0.3-0.4-0.3
		c-0.3,0-0.6,0.2-0.9,0.6c-0.2,0.4-0.5,0.7-0.9,0.9c-0.3,0.1-0.5,0.3-0.6,0.6c0,0.2-0.2,0.4-0.5,0.4l-0.4,0.4
		c-0.2,0.2-0.4,0.4-0.6,0.7l-0.3,0.1c-0.2,0.1-0.4,0.3-0.5,0.5c-0.3,0.4-0.7,0.6-1.2,0.7c-0.1-0.2-0.2-0.4-0.2-0.7l0.1-0.7l-0.1-0.7
		c0-0.2,0.1-0.4,0.2-0.5c0.1-0.1,0.2-0.3,0.2-0.4v-0.1l0.4-1.1c0-0.2,0.1-0.3,0.2-0.5c0.9-0.8,1.5-2,1.5-3.3c0-1-0.4-1.4-1.1-1.4
		c-0.8-0.1-1.6,0.3-2.1,1c-0.3,0.7-0.6,1-0.8,1S65,91,65,90.7c-0.1-1.5-0.7-2.3-1.8-2.3c-0.1,0-0.2,0-0.3,0.1l-0.4,0.2h0
		c-0.2-0.1-0.3-0.2-0.5-0.2h-0.2c-0.5,0.3-0.9,0.5-1.4,0.7h-0.2c-0.3,0-0.7,0.2-0.9,0.3c-0.4,0.2-0.8,0.4-1.2,0.6
		c-0.4,0.2-0.8,0.4-1.1,0.7c-0.2,0.2-0.4,0.4-0.7,0.5c-0.7,0.4-1.4,0.9-2,1.5l-0.8,0.8c-0.3,0.2-0.7,0.5-0.9,0.8
		c-0.2,0.3-0.4,0.5-0.6,0.7c-0.2,0.2-0.4,0.4-0.4,0.7l-0.3,0.3c-0.2,0.2-0.5,0.5-0.6,0.8c-0.2,0.3-0.3,0.5-0.5,0.8l0,0.7
		c-0.3,0-0.5,0.1-0.5,0.3l0,0.9v0.2c0,0.1-0.1,0.3,0,0.4c0,0.3,0.1,0.7,0.2,1l0.3,1.1c0.1,0.4,0.4,0.7,1,0.9
		c0.5,0.2,1.1,0.4,1.7,0.4c1.1-0.2,2.1-0.7,3-1.4l0.2-0.2c0.3-0.2,0.6-0.3,0.9-0.5l2-1.6c0.2-0.2,0.5-0.4,0.6-0.7
		c0.1-0.2,0.2-0.3,0.3-0.5l0.5,0.1l0.3-0.3c0.1-0.2,0.3-0.3,0.5-0.4c0.2-0.1,0.4-0.2,0.4-0.3l0.1-0.2c0.2-0.1,0.4-0.3,0.5-0.5
		c0-0.3,0.2-0.5,0.3-0.7c0.2,0,0.5-0.1,0.6-0.3c0.2-0.2,0.3-0.3,0.4-0.3c0.1,0,0.1,0.1,0.1,0.2l-0.2,1.3c0,0.1,0,0.2,0.1,0.3
		c0,0.1,0,0.2,0.1,0.3c0,0.1,0,0.1-0.1,0.2s-0.1,0.1-0.1,0.2c0,0.1,0.1,0.2,0.1,0.3s0.1,0.2,0.1,0.3l-0.1,0.5c0,0.3,0.1,0.6,0.2,0.8
		c0.1,0.1,0.2,0.3,0.3,0.5c0,0.1,0.1,0.2,0.2,0.3c0.3,0,0.6,0.1,0.9,0.3c0.3,0.1,0.6,0.2,0.9,0.2c0.1,0,0.3-0.1,0.4-0.1
		c0.3-0.1,0.6-0.2,0.8-0.3c0.3-0.1,0.6-0.2,0.8-0.4l0.1-0.3c0.2-0.1,0.4-0.1,0.6-0.2c0.2-0.3,0.5-0.4,0.8-0.5
		c0.3-0.1,0.5-0.2,0.6-0.5c0.2-0.3,0.4-0.5,0.8-0.6l0.3-0.4c0.2-0.1,0.5-0.3,0.6-0.6c0.1-0.2,0.3-0.4,0.5-0.4l0.2-0.3v-0.1l1-0.8
		l1.8-1.4c0.2-0.1,0.4-0.2,0.4-0.4c0.2-0.3,0.4-0.5,0.7-0.6c0.3-0.1,0.5-0.3,0.7-0.6c0.3-0.4,0.6-0.8,1-1.2c0.6-0.5,0.9-0.8,1-0.8
		c0.1,0,0.2,0.2,0.2,0.5c0.1,0.3,0.2,0.5,0.2,0.5l-0.1,0.7c0,0.1,0.1,0.3,0.1,0.4l-0.1,0.2l0.1,0.6l-0.3,0.5c0,0.2,0.1,0.3,0.2,0.4
		l0.1,0.2c0,0.2-0.1,0.3-0.3,0.3c-0.2,0-0.3,0.1-0.3,0.3V96c-0.1,0.2-0.1,0.3-0.2,0.5v0.3l-0.9,1.2l-0.4,0.9
		c-0.1,0.3-0.2,0.4-0.3,0.4h-0.2l-0.1,0.1c-0.4,0.4-0.8,0.6-1.3,0.6c-0.1,0-0.3-0.1-0.4-0.2l-0.4,0.1c-0.1,0-0.1,0-0.1-0.1
		c-0.3-0.3-0.5-0.5-0.7-0.5c-0.2,0-0.4,0.1-0.5,0.2c-0.1,0.1-0.2,0.1-0.4,0.2c-0.8,0.1-1.3,0.3-1.5,0.7c-0.1,0.3-0.3,0.5-0.5,0.8
		c-0.1,0.1-0.2,0.2-0.3,0.4c0,0.2,0.1,0.4,0.3,0.6c0.2,0.3,0.5,0.6,0.7,0.9c0.2,0.4,0.6,0.7,0.9,0.9c0.6,0.3,1.4,0.4,2.1,0.4
		c0.5-0.1,0.9-0.2,1.3-0.5c0.3-0.3,0.7-0.5,1.2-0.5h0.4c0.3-0.3,0.6-0.5,1-0.6l0.4-0.3c0.3-0.3,0.6-0.4,1-0.5
		c0.4-0.1,0.6-0.3,0.6-0.3l0.2-0.3l0.6-0.2c0.4-0.1,0.8-0.3,1.2-0.6l0.1-0.1c0.1,0,0.2-0.1,0.3-0.1c0.1-0.2,0.3-0.4,0.7-0.5
		c0.1-0.2,0.2-0.4,0.3-0.6l0.6-0.1c0.3-0.4,0.6-0.7,1-1c0.3-0.1,0.5-0.2,0.6-0.4c0.1-0.2,0.1-0.3,0.1-0.3c0.4-0.1,0.7-0.1,0.7-0.2
		l0.3-0.3l0.5-0.3c0.5-0.7,0.8-1.1,0.9-1.1c0.1,0,0.3-0.1,0.4-0.1c0,0.1,0,0.1,0,0.2c-0.1,0.3-0.2,0.6-0.4,0.9
		c-0.3,0.5-0.6,1-0.8,1.5L87,99.5c-0.2,0.7-0.3,1.4-0.3,2.2c0,0.1,0.2,0.3,0.5,0.6c0.2,0.2,0.5,0.4,0.8,0.4c0.1,0,0.2,0,0.3-0.1
		c0.1-0.1,0.3-0.2,0.4-0.3l0.4-0.3c0.2-0.2,0.4-0.4,0.6-0.5c0.2-0.2,0.4-0.4,0.5-0.6c0.1-0.2,0.2-0.4,0.4-0.6
		c0.1-0.2,0.3-0.3,0.4-0.4c0.2-0.2,0.4-0.5,0.4-0.8h0.2c0.2,0,0.4-0.2,0.4-0.5c0.1-0.3,0.2-0.5,0.4-0.5c0.1-0.3,0.3-0.7,0.6-0.9
		c0.1,0,0.3-0.1,0.3-0.2c0.1-0.1,0.2-0.3,0.3-0.4l0.2-0.1c0.3-0.3,0.6-0.6,1-0.8l0.2-0.6c0.2,0,0.6-0.2,1-0.7l0.1-0.4l0.3-0.2h0.2
		c0.2,0,0.3-0.1,0.4-0.4c0.1-0.3,0.2-0.4,0.3-0.4l0.5,0.1c0.2,0,0.3-0.2,0.5-0.5c0.2-0.3,0.5-0.5,0.8-0.5c0.3-0.3,0.7-0.6,1.1-0.7
		c0.2,0,0.3,0.1,0.3,0.2c0,1.1-0.3,1.8-0.9,2c-0.4,0.1-0.8,0.3-1.2,0.5c-0.2,0.2-0.4,0.3-0.6,0.4c-0.3,0.2-0.5,0.3-0.7,0.6h-0.1
		c-0.2,0-0.4,0.1-0.5,0.3c-0.1,0.2-0.2,0.3-0.4,0.4c-0.2,0.1-0.3,0.2-0.4,0.4l-0.3,0.2c-0.1,0.2-0.2,0.5-0.3,0.8
		c0,0.4,0.3,0.7,0.8,0.8l0.2,0.3c0.3,1,0.8,1.9,1.4,2.7l0.4,0.3c0.3,0.6,0.5,0.9,0.7,1c0.2,0.1,0.3,0.2,0.5,0.3
		c0.5,0.1,0.9,0.2,1.4,0.3c0.2,0,0.4-0.1,0.6-0.2c0.2-0.1,0.5-0.2,0.7-0.2c0.2,0,0.4-0.1,0.6-0.4c0-0.1,0-0.2,0.1-0.2l0.3,0.1h0.1
		c0.1,0,0.2-0.1,0.3-0.2l0.7-0.5c0.3-0.2,0.5-0.3,0.8-0.4c0.2-0.1,0.4-0.3,0.4-0.5c0.1-0.2,0.3-0.4,0.5-0.5c0.2-0.1,0.4-0.2,0.5-0.4
		c0.1-0.1,0.2-0.2,0.3-0.3c0.1-0.1,0.2-0.1,0.2-0.2c0.1-0.1,0.1-0.1,0.2-0.2c0.1-0.1,0.2-0.2,0.3-0.3c0.2-0.2,0.4-0.3,0.6-0.4
		c0.2-0.1,0.4-0.2,0.5-0.4c0.1-0.1,0.2-0.3,0.3-0.3c0.1,0,0.2-0.1,0.3-0.2c0.1-0.1,0.2-0.2,0.3-0.2h0.1l0.3,0.1
		c0.1-0.2,0.2-0.5,0.3-0.7c0.1-0.3,0.3-0.6,0.3-0.9c0-0.4,0.1-0.8,0.2-1.2C111,94,110.8,93.9,110.6,94z M63.5,93.6
		c-0.4,0.5-0.9,0.9-1.4,1.3c-0.1,0.3-0.4,0.5-0.6,0.6c-0.3,0.2-0.6,0.5-0.7,0.9c-0.2,0.1-0.4,0.2-0.5,0.4c-0.2,0.2-0.4,0.4-0.7,0.4
		L59,97.7l-1.5,0.8c-0.1,0.2-0.3,0.4-0.5,0.5c-0.2,0.1-0.3,0.2-0.5,0.3c-0.1,0.1-0.2,0.1-0.3,0.2c-0.1,0-0.2,0.1-0.2,0.1l-0.5,0.3
		c-0.2,0-0.3,0.1-0.4,0.2c-0.2,0.2-0.5,0.3-0.8,0.4c-0.3,0.1-0.6,0.2-0.9,0.3c-0.3,0-0.5-0.4-0.5-1.3c0-0.2,0.1-0.4,0.3-0.6
		c0.2-0.2,0.3-0.5,0.4-0.8c0-0.2,0.1-0.5,0.4-0.6c0.2-0.1,0.4-0.2,0.5-0.3l0.2-0.4c0-0.1,0.2-0.3,0.7-0.6c0.1-0.4,0.4-0.8,0.8-0.9
		c0.5-0.3,0.9-0.7,1.2-1.1c0.4-0.1,0.7-0.3,1-0.5c0.5-0.3,1-0.6,1.5-0.7c0.4-0.1,0.8-0.2,1.2-0.4c0.2-0.1,0.5-0.2,0.7-0.2l0.5,0.1
		l0.3-0.1l0.4,0.2l0.5-0.1l0.5,0.1l0.2-0.1h0.1c0.1,0,0.1,0,0.1,0.1S64.1,93,63.5,93.6z"/>
</g>

</svg>
