<svg id="Layer_1" data-name="Layer 1" xmlns="http://www.w3.org/2000/svg" viewBox="0 0 926.18 303.23">
    <defs>
        <style>
            .inside-letter {
                transform: scale(0);
                transform-origin: 10% 50%;
                animation: scale 1s ease-out forwards;
                animation-delay: 3s;
            }

            .logo {
                fill:#3aab2a;
            }
            .llr {
                transform: translate(-63px, -8px);
                animation: moveLines 2s ease-out forwards;
            }
            
            .lll {
                transform: translate(63px, -8px);
                animation: moveLines 2s ease-out forwards;
            }

           .slt {
                transform: translate(1px, 7px);
                animation: moveShortLine1 2s ease-out forwards;
                
            }
            
            .slb {
                transform: translate(1px, -23px);
                animation: moveShortLine2 2s ease-out forwards;
                
            }
            .name {
                fill:#fff;
                stroke-miterlimit:10;
		        stroke-dasharray: 1000;
                animation: drawLetter 5s ease-in-out forwards;
            }

            .task{
                fill:#DB162F;
                animation: scaleTask 0.8s ease-in-out forwards;
                animation-delay: 3.5s;
            }
            
            .task-word{
                    animation: fill 3.6s forwards;
            }

            @keyframes scaleTask{
                0%{ transform: scale(5) translate(-50%, -100%);}
                70%{ transform: scale(1);}
                86%{ transform: scale(1.05) translate(-1%, -5%);}
                100%{ transform: scale(1);}
            }

            @keyframes fill{
                0%{transform: scale(0);}
                99%{transform: scale(0);}
                100%{transform: scale(1);}
            }

            @keyframes moveLines {
                100%{transform: translate(0px, -8px);}
            }

            @keyframes moveShortLine1 {
                100%{transform: translate(1px, 0);}
            }
            
            @keyframes moveShortLine2 {
                100%{transform: translate(1px, -16px);}
            }

            @keyframes drawLetter {
                0%{
                    stroke:#fff;
                    stroke-width:3;
                    stroke-dashoffset: 1000;
                    fill: #1e3066;
                }
                100%
                {
                    stroke-dashoffset: 0;
                    fill:#fff;
                    stroke: #fff;                
                }
            }

            @keyframes scale {
                100%{
                    transform: scale(1);
                }
            }

        </style>
    </defs>

    <title>johnny-bros-logo</title>

    <path class="logo inside-letter" d="M91.94,119.05c2.06,9.64.89,10.86-11.94,12.42,0,5.12-.14,10.37.14,15.61,0,.81,2,2.15,3.08,2.18a142.76,142.76,0,0,0,16.85-.22c8.11-.75,14.93-7.46,17-16a20.76,20.76,0,0,0-8.31-22c-3-2.05-6.29-3.62-11.3-6.46,2.45-1.74,4.61-2.91,6.32-4.56,4.44-4.31,6.11-9.5,3.5-15.44-2.49-5.69-7.11-8.07-13.16-7.86-.5,0-1,0-1.49,0-3.79.09-8.39-1.07-11.11.7-2,1.33-1.69,6.42-2.45,10.08a3,3,0,0,1-1,.43c-10,.78-10,.77-10-9.29,0-4.3,0-8.6,0-13.72,7.38,0,14.25-.05,21.12,0,4.12,0,8.4-.38,12.34.54,13.8,3.22,22.11,18.31,17.54,31.9-1.23,3.67-.84,5.71,1.78,8.62,9.46,10.52,11.38,22.81,5.69,35.71C121,154.24,111.15,161,97.28,161c-8.27,0-16.54-.08-24.81.06-3,.05-4.54-.6-4.47-4.1.19-9.83,0-19.66.1-29.49.07-5.67,2.69-8.28,8.23-8.41C81.58,119,86.83,119.05,91.94,119.05Z" transform="translate(-5.41 -7.96)"/>
    <path class="logo long-line llr" d="M185.41,29.79c0-5.64-1.11-6.77-6.72-6.78-16.17,0-32.33,0-48.5-.05-3.21,0-5.5.24-5.42,4.41s2.31,4.44,5.53,4.42c13.83-.09,27.67.06,41.5-.1,3.63,0,4.95,1,4.94,4.82q-.15,76.5,0,153c0,3.72-1.23,4.91-4.9,4.86-13.83-.16-27.67,0-41.5-.1-3.19,0-5.49.27-5.57,4.39s2.18,4.43,5.4,4.41c15.83-.09,31.67,0,47.5,0,7,0,7.75-.75,7.75-7.73q0-41,0-82Q185.42,71.54,185.41,29.79Z" transform="translate(-5.41 -7.96)"/>
    <path class="logo long-line lll" d="M5.42,112.49q0-41,0-82c0-6.67.81-7.49,7.47-7.5,15.66,0,31.32,0,47,0,3.18,0,5.45.2,5.46,4.39S63,31.77,59.83,31.75c-13.49-.06-27,.11-40.48-.11C15.17,31.58,14,33,14,37.08q.17,76,0,151.95c0,4.19,1.38,5.43,5.47,5.37,13.49-.2,27,0,40.48-.1,3.19,0,5.44.27,5.41,4.46S62.87,203,59.79,203C44,203,28.13,203,12.3,203c-6,0-6.88-1-6.88-7Q5.4,154.22,5.41,112.49Z" transform="translate(-5.41 -7.96)"/>
    <path class="logo short-line slt" d="M94.41,16.19c-8,0-16-.12-24,.06-3.37.07-4.24-1.3-4.23-4.44S67.71,8,70.52,8q24,.12,47.91,0c2.87,0,4.23.74,4.26,3.9s-1,4.45-4.32,4.38C110.39,16.08,102.4,16.19,94.41,16.19Z" transform="translate(-5.41 -7.96)"/>
    <path class="logo short-line slb" d="M94.94,209.81c7.82,0,15.64.11,23.46-.05,3.31-.07,4.31,1.22,4.29,4.4s-1.43,3.89-4.28,3.88q-24-.13-47.91,0c-2.84,0-4.27-.66-4.27-3.87s.92-4.49,4.26-4.42C78.63,209.92,86.78,209.81,94.94,209.81Z" transform="translate(-5.41 -7.96)"/>
    
    <path class="name letter" d="M686.28,146.23c-6.12,7.7-9.89,9.38-19.37,8.59V43.09c10.27-3.1,20.86,5.18,21.29,17.11.25,7,0,14,0,21.21.66-.17,1.17-.16,1.47-.4,15.41-12.41,36-7.85,44,10.25,6.87,15.64,6.77,31.77.26,47.55C726,158.19,700.62,163.41,686.28,146.23Zm2-31q0,5.5,0,11c0,6.68,2.64,10.53,8.47,12.37,6.6,2.09,12.9.17,16.47-5,5.53-8,5.46-28.63-.14-36.48-3.63-5.09-10-7-16.51-4.92-5.62,1.79-8.29,5.83-8.3,12.53Q688.26,109.94,688.26,115.19Z" transform="translate(-5.41 -7.96)"/>
    <path class="name letter" d="M370.94,154.8v-111c10.87-2.61,20.24,4.45,20.48,15.5.18,8.63,0,17.28,0,26.66,1.17-.91,1.89-1.41,2.54-2,8.75-7.73,18.81-9,29.36-5,10.31,3.89,13.56,13.06,13.85,22.9.52,17.63.15,35.28.15,52.9-11.93,2.17-20.25-4.55-20.51-16.79-.22-10.48,0-21-.09-31.47,0-4.78-.57-9.68-5.91-11.57-5.55-2-11.35-2.1-16,2.12a11.17,11.17,0,0,0-3.27,7.16c-.34,11.31-.08,22.64-.17,34C391.35,149.89,383.24,156.58,370.94,154.8Z" transform="translate(-5.41 -7.96)"/>
    <path class="name letter" d="M584.59,170.7c4.48,0,8.64.28,12.75-.06,8.67-.71,14.29-9.78,11.41-18.06L583.62,80.22c12-6.6,22-2.61,25.76,10.06L620,126.07c2.11-7,3.82-12.81,5.56-18.57,1.58-5.25,3.21-10.48,4.77-15.73,4.2-14.13,11.78-17.73,26.2-11.94q-4.46,12.78-8.94,25.62-10.49,30.11-21,60.21a83,83,0,0,1-3.38,8.3c-6.62,13.88-16.16,14.82-30.09,13.39C586.71,186.69,584.15,180.78,584.59,170.7Z" transform="translate(-5.41 -7.96)"/>
    <path class="name letter" d="M288.51,114.58c1-4.84,1.51-11.05,3.47-16.78,5.66-16.57,20.48-24.77,40.19-22.9a34.06,34.06,0,0,1,31,30.26,75.72,75.72,0,0,1-1,25.12c-3.8,17.07-17.92,26.83-36.13,26.64-18-.19-31.5-10.65-35.51-27.7C289.52,124.88,289.28,120.36,288.51,114.58Zm21,.92c1.08,5.19,1.6,10.21,3.23,14.84,2.12,6,7,9.26,13.43,9.38,6.64.13,11.76-2.86,14.15-9.09a39.61,39.61,0,0,0-.21-30.18c-2.44-5.87-7.29-8.8-13.88-8.69-6.4.11-11,3.09-13.18,8.88C311.31,105.37,310.67,110.53,309.54,115.49Z" transform="translate(-5.41 -7.96)"/>
    <path class="name letter" d="M786.62,114.78c.91-4.85,1.4-10.9,3.24-16.51,5.39-16.43,20.1-25.06,39-23.49C846,76.19,859,87.64,861.15,104.85a74.88,74.88,0,0,1-.87,25.17c-3.81,17.28-17.78,27.06-36,26.9-18-.16-31.61-10.56-35.68-27.64C787.58,124.94,787.37,120.41,786.62,114.78Zm20.86.84c1.27,5.37,2,10.68,3.82,15.57,2.11,5.66,7,8.38,13,8.53,6.2.15,11.27-2.44,13.74-8.17A38.7,38.7,0,0,0,838,100c-2.42-5.64-7.28-8.38-13.65-8.27-6.16.1-10.81,2.82-13,8.41C809.52,105,808.77,110.33,807.48,115.61Z" transform="translate(-5.41 -7.96)"/>
    <path class="name letter" d="M865.69,121.46c10.64-1.14,16.57,2.55,19.9,12.26,2.86,8.36,17.51,11.46,23.61,5,3.19-3.39,2.75-8.4-1.52-10.53-3.81-1.9-8.13-2.78-12.19-4.2-5.78-2-11.94-3.4-17.21-6.35-13-7.3-14.28-23.7-3-33.64,12.24-10.83,37.08-10.41,49,.83,7.5,7.08,7.58,16.09,6.82,25.33-10.23,1.68-16.59-2-19.87-11.39-2.78-7.92-14.94-10.72-21.12-4.86-3.62,3.43-3.41,8.61,1.07,10.88,3.93,2,8.46,2.78,12.68,4.2,5.8,2,12,3.22,17.25,6.18,13,7.36,14,24.54,2.46,34-11.9,9.77-35.69,10.23-47.86.72C866.34,142.61,863.9,132.74,865.69,121.46Z" transform="translate(-5.41 -7.96)"/>
    <path class="name letter" d="M583.25,154.83c-12.28,1.73-20.61-5.32-20.71-17.48-.09-10.65,0-21.31-.1-32-.08-9-3.26-12.39-11.23-12.41-8.22,0-13.26,4.8-13.26,12.77,0,10.32.09,20.64.09,31,0,13.71-6.74,19.73-20.62,18.22V76.29c7.93.22,13.53,4.14,17.6,11.11,5.78-7.27,12.9-11.29,22-11.46,15.9-.3,25.26,7.17,26,23.09C583.93,117.6,583.25,136.24,583.25,154.83Z" transform="translate(-5.41 -7.96)"/>
    <path class="name letter" d="M510.14,154.89c-12.46,1.47-20.52-5.44-20.61-17.64-.08-10.65,0-21.31-.1-32-.09-8.92-3.3-12.31-11.33-12.31s-13.16,4.85-13.16,12.87c0,10.49.1,21,.09,31.46,0,13.14-7.27,19.35-20.65,17.53V76.22c7.78.41,13.48,4,17.82,11.7a39.42,39.42,0,0,1,3.1-4.13c8.35-8.42,23.47-10.59,33.79-4.79,7.41,4.17,10.67,11.31,10.88,19.13C510.5,117,510.14,136,510.14,154.89Z" transform="translate(-5.41 -7.96)"/>
    <path class="name letter" d="M237.36,170.68c3.38,0,6.86.17,10.31,0,10.18-.59,13.19-3.82,13.21-14q0-27,0-53.91V77c12.5-2.27,21.45,4.84,21.49,16.73q.1,33.44,0,66.89c-.1,21-13.79,30.7-35.28,27C239.77,186.42,236,179.46,237.36,170.68Z" transform="translate(-5.41 -7.96)"/>
    <path class="name letter" d="M745.23,76.23c8.62-1,15.17,1.57,20.07,9,4.85-7,11.32-10.25,20-9V97.06c-2.33,0-4.77-.18-7.18,0-8.1.72-12.17,5.22-12.17,13.24,0,11.49.14,23-.05,34.48-.14,8.47-7.47,13.48-14.59,10.21-3.8-1.75-6-4.74-6-9C745.2,122.9,745.23,99.75,745.23,76.23Z" transform="translate(-5.41 -7.96)"/>
    <path class="name letter" d="M270.91,44.88c7.27-.08,12.27,4.3,12.35,10.81s-4.92,11.24-12,11.28-12-4.48-12-11.19C259.3,49.22,263.84,45,270.91,44.88Z" transform="translate(-5.41 -7.96)"/>
    <g class="task-word">
        <path class="task" d="M322.82,174.75l2-1.63,2,.41a9.61,9.61,0,0,0,3.27-.82,8.93,8.93,0,0,1,2-1.23c.82,0,1.23-.41,2-1.23a4.64,4.64,0,0,1,3.27-1.23,5.43,5.43,0,0,0,3.27-1.23,2.25,2.25,0,0,1,2-1.23c.82-.41,2-.41,2.86-.82l9.94-2.86c.41,0,.82.41,1.23.41h.41a3.53,3.53,0,0,0,2.45-1.23,4.41,4.41,0,0,1,2.86-1.23c1.23-.41,2.86-.82,4.08-1.23l.82.82c1.23-1.23,2-2,2.86-2h.82l2,.41a14.68,14.68,0,0,1,4.49-.82l2.45-.41c.41,0,.41,0,.82.41a3.53,3.53,0,0,1,2.45-1.23h1.23l4.49-1.23,1.23.41a6.9,6.9,0,0,1,4.08-1.23h.82l1.23.41c.82,0,1.23-.41,2-.82a62.85,62.85,0,0,1,8.71-.82l2.86.41c.82-.41,2-.82,2.86-1.23l2.86.82,1.23-.41h.41c.41,0,.82.41,1.23.41h-.82l7.9-1.23.82.41c.41-.41.82-.82,1.23-.82l2,.41a3.71,3.71,0,0,0,2.86-1.23l.82.82,7.49-.82,2.86.41,2.45-.41c2,0,4.08.41,5.45,2a4.43,4.43,0,0,1,1.63,3.68l.41,3.27-.82,1.63-.41,2a3.19,3.19,0,0,1-1.63,1.63,1.43,1.43,0,0,1-.82.41c-.82,0-1.23.41-2,.82-2,.82-4.08.82-6.67.82-1.63,0-2.86-.41-3.27-1.63a2.88,2.88,0,0,0-1.63-2l-4.49-2c-.41,0-.82-.41-1.23-.41H430l-4.49.41-1.23-.41-1.63.82-7.9-.41-3.27.41-2.45-.41a2.46,2.46,0,0,0-1.63.41,16.75,16.75,0,0,1-4.49.41c-2.45,0-3.27.82-3.27,2a5.8,5.8,0,0,0,.82,2.45,5.81,5.81,0,0,1,.82,2.45,6.58,6.58,0,0,0-1.63,2.86c-.41.41-1.23.82-1.63,1.23-.82.82-2,1.63-4.08,3.27a19.36,19.36,0,0,0-4.08,4.08c-.41,1.23-1.23,1.63-2.45,2a11,11,0,0,0-2.86,3.27l-.82.82c0,.41-.41.82,0,.82,0,.41-.41.82-.82,1.23L382,191.5a27.8,27.8,0,0,0-4.49,5.85l-1.23.82-1.23,1.63h-1.63c-.82,0-.82.41-.82,1.23l.41,3.27A9.64,9.64,0,0,0,370.6,208l-1.23,2a10.83,10.83,0,0,0-2,2.45,15.1,15.1,0,0,1-2,4.49v1.23c0,1.23-2.45,4.9-7.49,10.75a16.55,16.55,0,0,0-1.23,6.26c-2,4.08-3.68,6.26-4.49,6.26a18.14,18.14,0,0,1-1.23,6.67A63.31,63.31,0,0,0,348,256a34.51,34.51,0,0,1-3.68,7.49l-.41.82c-.41.41-.82,1.23-1.23,1.63a79.35,79.35,0,0,1-2,9.53l-.82,6.26-2,6.26a1.5,1.5,0,0,0-.41,1.23,3.1,3.1,0,0,0,.82,1.63,5.21,5.21,0,0,1,0,4.9,5.18,5.18,0,0,0-.41,2.45,4.79,4.79,0,0,1-3.68,4.49h-.82l-2,.41a10.17,10.17,0,0,1-8.3-4.49,18.17,18.17,0,0,1-3.68-12,9.61,9.61,0,0,1,.82-3.27c.41-2,.82-3.27.82-3.68s.41-1.23.41-1.63a5.18,5.18,0,0,0,.41-2.45,16.94,16.94,0,0,1,2.45-9.12,54.91,54.91,0,0,0,3.68-5.85.88.88,0,0,1,.82-.82,5.85,5.85,0,0,1-.82-2.86c0-2,.82-4.08,2.86-4.9,0-.82.41-1.23.82-2a27.23,27.23,0,0,0,2-5.45c.41-2.45,2.45-4.08,4.49-5.45a7.05,7.05,0,0,1,1.23-1.63l-.41-4.08a7.31,7.31,0,0,1,2-2.86l2-2.86c.41-1.63,1.63-2.45,2.86-3.27.41-.41.82-1.23,1.23-1.23,0-.41.41-1.23.82-2.86a30.71,30.71,0,0,1,3.27-5.85c1.63-2.45,3.27-4.49,4.9-7.08s3.27-3.68,4.49-3.68a1.93,1.93,0,0,0,2-2h0l.82-4.08a31.19,31.19,0,0,0,3.68-3.68l1.63-1.63a2.25,2.25,0,0,1,1.23-2,4.08,4.08,0,0,0,1.63-2,9.54,9.54,0,0,1,2.86-2.86,16.16,16.16,0,0,1,6.26-7.9l1.63-1.63c.82-1.23,2-2.45,2.86-3.68a8.54,8.54,0,0,0,1.63-2.45,3.68,3.68,0,0,1,2.45-2.45c1.23-.41,1.63-1.23,1.63-1.63s-.41-.41-.82-.41a7.57,7.57,0,0,0-2.86.82h-.82l-2,.41h-.82l-2-.41c-.82.41-2,.41-2.86.82l-1.23,1.23H375l-.82,1-.82.41-2.86-.41a5.43,5.43,0,0,0-3.27,1.23,11.92,11.92,0,0,1-3.68.82,34.58,34.58,0,0,0-6.67,2,14.51,14.51,0,0,1-3.68,1.63l-2-.41h0a2.47,2.47,0,0,0-2.45,1.23,5,5,0,0,1-3.27,1.63h-.82a9.31,9.31,0,0,0-4.49,1.23c-.82.41-2,.82-2.86,1.23l-2-.41c-.82.41-1.23.82-2,1.23s-1.23.41-1.63,1.23c-.41.41-1.23.82-1.63,1.23-.82.41-1.23.82-2,1.23a3.1,3.1,0,0,1-1.63.82h-.41l-1.23-.41a3.73,3.73,0,0,0-2,1.23,4.08,4.08,0,0,1-2,1.63,5.44,5.44,0,0,0-2,1.23,3.12,3.12,0,0,1-2,.82c-.41.82-1.23,1.63-1.63,2.45a22.65,22.65,0,0,1-2.45,3.27l-2,2-.82.82c-3.68,0-5.45-2-5.45-6.67l2-4.49a10.24,10.24,0,0,1,7.08-6.67,21.29,21.29,0,0,0,6.26-2.45Z" transform="translate(0 -0.04)"/>
        <path class="task" d="M599.31,261.2c-1.23,0-2.86,1.23-4.9,3.27l-.82.41a5.49,5.49,0,0,0-2.86,2.45,14.67,14.67,0,0,1-4.08,2.86c0,1.63-.82,2-1.63,2h-1.23c-.82,0-1.63.82-2.45,2a16,16,0,0,1-4.08,3.27A9.83,9.83,0,0,0,574,280a2.25,2.25,0,0,1-2,1.23l-1.63.41a6.58,6.58,0,0,1-2.86,1.63c-.82,0-1.23.41-2,.82a26,26,0,0,0-2.86-.82,8.89,8.89,0,0,1-3.27-2,22.65,22.65,0,0,1-2.45-3.27,8.89,8.89,0,0,0-2-3.27,8.54,8.54,0,0,1-1.63-2.45c0-.82,1.23-2,4.08-3.27a25.92,25.92,0,0,0,5.45-2.86c.82-.41,1.63-1.23,2.45-1.23.82-.41,1.63-.41,2-1.23l6.26-5.85.82-2c1.23-1.23,1.63-1.63,1.63-2.45l-.41-2c.41-1.23,1.23-2,1.23-3.27,0-4.49-.82-7.08-2.86-8.3l-3.68-2.45L563.92,236a33.71,33.71,0,0,0-5.45,2,10.82,10.82,0,0,0-5.85,5.45l-1.23-.41a2.25,2.25,0,0,0-2,1.23l-2,2-1.63,1.23-3.27,3.27-1.63,1.23.41,2-.82.41-1.63-.41a.4.4,0,0,1-.41.41,23.4,23.4,0,0,1-4.49,4.49l-3.27,2.86-2,2.86a5,5,0,0,0-1.63,3.27h.41a19.18,19.18,0,0,0-3.68,2.45l-.82,1.63-.41-.41v-2.45a2.12,2.12,0,0,1,.82-1.63l1.23-.41v-2.45l1.23-2.45a18.5,18.5,0,0,0,.41-3.27c0-.41.82-.82,2.45-1.63l.41-1.23a26.29,26.29,0,0,0,2-5.45,20.62,20.62,0,0,1,2.86-6.67l4.9-6.67a16.55,16.55,0,0,0,2-3.68,8,8,0,0,0,3.68-3.68,14.67,14.67,0,0,1,2.86-4.08,6.56,6.56,0,0,0,2-4.49c.41,0,1.23-.41,2-1.63l.82-.82a17.49,17.49,0,0,0,4.08-5.85l1.63-3.27c1.23-2,2-3.27,2.45-3.27l4.49-12a3.53,3.53,0,0,1,1.23-2.45c0-.41,0-.41-.41-.82l.82-9.53v-2.45a5.8,5.8,0,0,0-.82-2.45,28.13,28.13,0,0,1-1.23-3.27,2.72,2.72,0,0,0-2.86-2,8.34,8.34,0,0,0-5.85,2.86,22.35,22.35,0,0,0-4.9,7.49l-.82.82a3.1,3.1,0,0,0-.82,1.63l-.41.41c-.82.82-1.63,1.63-1.63,2.45l.41.82a1.43,1.43,0,0,0,.41.82,19.91,19.91,0,0,1-2.86,1.23c-1.23,3.27-2.45,5.45-2.86,7.08l-2.45,4.9a12.23,12.23,0,0,1-1.63,4.08,35.91,35.91,0,0,0-2.45,4.08A10.31,10.31,0,0,0,534.1,214l-1.23,1.63a61.5,61.5,0,0,1-4.9,12l-1.23,1.23a36.18,36.18,0,0,1-5.85,10.75,30.67,30.67,0,0,0-2.86,3.27l-11.16,14a4.18,4.18,0,0,0-2.45,2,5.64,5.64,0,0,1-1.23,1.63L502,261.75l-.82.41a3.19,3.19,0,0,0-1.63,1.63c-.41.82-1.23,1.63-1.63,2.45l-2,1.23a11,11,0,0,1-3.27,2.86,4.08,4.08,0,0,0-2,1.63,15,15,0,0,1-6.26,3.68,1.5,1.5,0,0,1-.41-1.23c.41-.82.82-2,1.23-2.86V269.1l.82-4.08v-4.49c.41-.82.41-1.23.82-2-.41-1.23-.41-2-.82-3.27a9.61,9.61,0,0,1-.82-3.27,54.72,54.72,0,0,0-2.45-11.16,16.54,16.54,0,0,0-5.45-9.53,12.23,12.23,0,0,0-4.08-1.63,5.24,5.24,0,0,0-4.08,1.63,21.42,21.42,0,0,0-3.27,5.45,23.67,23.67,0,0,1-2,5.45,4.08,4.08,0,0,0-1.63,2L460.45,247a17.41,17.41,0,0,1-4.49,4.9,49.1,49.1,0,0,1-5.45,4.9L446,260.11l-.41.82-.41-.41a2.19,2.19,0,0,0-1.63-1.23q-1.84,0-3.68,2.45a8,8,0,0,1-3.68,3.68,3.68,3.68,0,0,0-2.45,2.45,1.87,1.87,0,0,1-2,1.63l-1.63,1.63a17.76,17.76,0,0,0-2.45,2.86l-1.23.41a4.92,4.92,0,0,0-2,2,7.58,7.58,0,0,1-4.9,2.86,5.9,5.9,0,0,1-.82-2.86l.41-2.86-.41-2.86a3.12,3.12,0,0,1,.82-2,3.1,3.1,0,0,0,.82-1.63h0l1.63-4.49c0-.82.41-1.23.82-2A18.63,18.63,0,0,0,429,246.91c0-4.08-1.63-5.85-4.49-5.85a9.52,9.52,0,0,0-8.71,4.08c-1.23,2.86-2.45,4.08-3.27,4.08s-.41-.41-.41-1.63c-.41-6.26-2.86-9.53-7.49-9.53a1.5,1.5,0,0,0-1.23.41l-1.63.82h0c-.82-.41-1.23-.82-2-.82h-2.45a33.23,33.23,0,0,1-5.85,2.86h-.82a9.76,9.76,0,0,0-3.68,1.23L382,245a16.86,16.86,0,0,0-4.49,2.86,7.33,7.33,0,0,1-2.86,2,36,36,0,0,0-8.3,6.26l-3.27,3.27a14.09,14.09,0,0,0-3.68,3.27,17.76,17.76,0,0,1-2.45,2.86,4.13,4.13,0,0,0-1.63,2.86l-1.23,1.23a9.83,9.83,0,0,0-2.45,3.27c-.82,1.23-1.23,2-2,3.27V279c-1.23,0-2,.41-2,1.23v4.49c0,.41-.41,1.23,0,1.63a14.51,14.51,0,0,0,.82,4.08l1.23,4.49c.41,1.63,1.63,2.86,4.08,3.68a19.31,19.31,0,0,0,7.08,1.63,27.43,27.43,0,0,0,12.39-5.85l.82-.82c1.23-.82,2.45-1.23,3.68-2l8.3-6.67c.82-.82,2-1.63,2.45-2.86.41-.82.82-1.23,1.23-2l2,.41,1.23-1.23a4.08,4.08,0,0,1,2-1.63c.82-.41,1.63-.82,1.63-1.23l.41-.82a4.92,4.92,0,0,0,2-2c0-1.23.82-2,1.23-2.86a2.91,2.91,0,0,0,2.45-1.23c.82-.82,1.23-1.23,1.63-1.23s.41.41.41.82l-.82,5.45a1.5,1.5,0,0,0,.41,1.23,1.5,1.5,0,0,0,.41,1.23c0,.41,0,.41-.41.82s-.41.41-.41.82.41.82.41,1.23.41.82.41,1.23l-.41,2a7.69,7.69,0,0,0,.82,3.27,8.93,8.93,0,0,1,1.23,2c0,.41.41.82.82,1.23a6.59,6.59,0,0,1,3.68,1.23,11.92,11.92,0,0,0,3.68.82c.41,0,1.23-.41,1.63-.41a28.14,28.14,0,0,0,3.27-1.23,8.21,8.21,0,0,0,3.27-1.63l.41-1.23c.82-.41,1.63-.41,2.45-.82a5.61,5.61,0,0,1,3.27-2c1.23-.41,2-.82,2.45-2a5.07,5.07,0,0,1,3.27-2.45l1.23-1.63a4.77,4.77,0,0,0,2.45-2.45,2.71,2.71,0,0,1,2-1.63l.82-1.23v-.41l4.08-3.27,7.49-5.85c.82-.41,1.63-.82,1.63-1.63a5.49,5.49,0,0,1,2.86-2.45,5.49,5.49,0,0,0,2.86-2.45,43.26,43.26,0,0,1,4.08-4.9c2.45-2,3.68-3.27,4.08-3.27s.82.82.82,2a17.17,17.17,0,0,0,.82,2l-.41,2.86c0,.41.41,1.23.41,1.63l-.41.82.41,2.45-1.23,2a2.12,2.12,0,0,0,.82,1.63l.41.82a1.08,1.08,0,0,1-1.23,1.23,1.08,1.08,0,0,0-1.23,1.23V269c-.41.82-.41,1.23-.82,2v1.23l-3.68,4.9-1.63,3.68c-.41,1.23-.82,1.63-1.23,1.63h-.82l-.41.41a7.26,7.26,0,0,1-5.45,2.45,3.1,3.1,0,0,1-1.63-.82l-1.63.41c-.41,0-.41,0-.41-.41-1.23-1.23-2-2-2.86-2a3.12,3.12,0,0,0-2,.82c-.41.41-.82.41-1.63.82-3.27.41-5.45,1.23-6.26,2.86a14.33,14.33,0,0,1-2,3.27,5.64,5.64,0,0,0-1.23,1.63,3.53,3.53,0,0,0,1.23,2.45c.82,1.23,2,2.45,2.86,3.68a10.54,10.54,0,0,0,3.68,3.68,20.71,20.71,0,0,0,8.71,1.63,13.26,13.26,0,0,0,5.45-2,6.76,6.76,0,0,1,4.9-2h1.63a8.47,8.47,0,0,1,4.08-2.45l1.63-1.23a7.78,7.78,0,0,1,4.08-2,5.56,5.56,0,0,0,2.45-1.23l.82-1.23,2.45-.82a13.8,13.8,0,0,0,4.9-2.45l.41-.41c.41,0,.82-.41,1.23-.41a4,4,0,0,1,2.86-2l1.23-2.45,2.45-.41a19.36,19.36,0,0,1,4.08-4.08,3.75,3.75,0,0,0,2.45-1.63,3.16,3.16,0,0,0,.41-1.23c1.63-.41,2.86-.41,2.86-.82L501.7,273l2-1.23c2-2.86,3.27-4.49,3.68-4.49s1.23-.41,1.63-.41v.82a14.51,14.51,0,0,1-1.63,3.68,39.2,39.2,0,0,0-3.27,6.26l-3.68,5.85a32.82,32.82,0,0,0-1.23,9.12c0,.41.82,1.23,2,2.45a5,5,0,0,0,3.27,1.63,1.5,1.5,0,0,0,1.23-.41c.41-.41,1.23-.82,1.63-1.23l1.63-1.23a10.83,10.83,0,0,1,2.45-2,10.83,10.83,0,0,0,2-2.45,8.54,8.54,0,0,1,1.63-2.45c.41-.82,1.23-1.23,1.63-1.63a5,5,0,0,0,1.63-3.27h.82a1.87,1.87,0,0,0,1.63-2c.41-1.23.82-2,1.63-2a7.35,7.35,0,0,1,2.45-3.68c.41,0,1.23-.41,1.23-.82.41-.41.82-1.23,1.23-1.63l.82-.41a16,16,0,0,1,4.08-3.27l.82-2.45c.82,0,2.45-.82,4.08-2.86l.41-1.63,1.23-.82h.82c.82,0,1.23-.41,1.63-1.63s.82-1.63,1.23-1.63l2,.41c.82,0,1.23-.82,2-2a4.16,4.16,0,0,1,3.27-2,10.57,10.57,0,0,1,4.49-2.86c.82,0,1.23.41,1.23.82,0,4.49-1.23,7.49-3.68,8.3a25,25,0,0,0-4.9,2,8.54,8.54,0,0,1-2.45,1.63,8.31,8.31,0,0,0-2.86,2.45H543a2.25,2.25,0,0,0-2,1.23,3.19,3.19,0,0,1-1.63,1.63,3.19,3.19,0,0,0-1.63,1.63l-1.23.82a28.14,28.14,0,0,0-1.23,3.27c0,1.63,1.23,2.86,3.27,3.27l.82,1.23a33.71,33.71,0,0,0,5.85,11.16l1.63,1.23c1.23,2.45,2,3.68,2.86,4.08s1.23.82,2,1.23c2,.41,3.68.82,5.85,1.23A5.8,5.8,0,0,0,560,297a7.57,7.57,0,0,1,2.86-.82,3,3,0,0,0,2.45-1.63c0-.41,0-.82.41-.82l1.23.41h.41c.41,0,.82-.41,1.23-.82l2.86-2a12.23,12.23,0,0,1,3.27-1.63,2.71,2.71,0,0,0,1.63-2,4.92,4.92,0,0,1,2-2,4.08,4.08,0,0,0,2-1.63l1.23-1.23c.41-.41.82-.41.82-.82l.82-.82,1.23-1.23a8.54,8.54,0,0,1,2.45-1.63,4.08,4.08,0,0,0,2-1.63c.41-.41.82-1.23,1.23-1.23s.82-.41,1.23-.82.82-.82,1.23-.82h.41l1.23.41c.41-.82.82-2,1.23-2.86.41-1.23,1.23-2.45,1.23-3.68a20.5,20.5,0,0,1,.82-4.9C600.95,261.2,600.13,260.79,599.31,261.2Zm-194.95-1.63a37.46,37.46,0,0,1-5.85,5.45,4.77,4.77,0,0,1-2.45,2.45,6.52,6.52,0,0,0-2.86,3.68,4.08,4.08,0,0,0-2,1.63,4.13,4.13,0,0,1-2.86,1.63l-2.45,2-6.26,3.27a4.92,4.92,0,0,1-2,2c-.82.41-1.23.82-2,1.23-.41.41-.82.41-1.23.82a1.43,1.43,0,0,0-.82.41l-2,1.23a2.12,2.12,0,0,0-1.63.82,8.21,8.21,0,0,1-3.27,1.63l-3.68,1.23c-1.23,0-2-1.63-2-5.45a3.53,3.53,0,0,1,1.23-2.45,8.21,8.21,0,0,0,1.63-3.27,2.54,2.54,0,0,1,1.63-2.45,8.93,8.93,0,0,0,2-1.23l.82-1.63c0-.41.82-1.23,2.86-2.45a5,5,0,0,1,3.27-3.68,17.41,17.41,0,0,0,4.9-4.49,12.77,12.77,0,0,0,4.08-2,19.9,19.9,0,0,1,6.26-2.86,23,23,0,0,0,4.9-1.63,7.57,7.57,0,0,1,2.86-.82l2,.41,1.23-.41,1.63.82,2-.41,2,.41.82-.41h.41c.41,0,.41,0,.41.41S406.81,257.12,404.36,259.57Z" transform="translate(0 -0.04)"/>
    </g>
</svg>


